# Blender v3.5.1 OBJ File: ''
# www.blender.org
mtllib dindingsampingkiri.mtl
o Cube.004_Cube.093_Cube.004_Cube.002_Cube.004_Cube.093_Cube.004_Cube.003
v -37.454502 0.033007 -25.080019
v -37.454498 20.433010 -25.080030
v -37.139870 0.033007 -25.080019
v -37.139862 20.433010 -25.080030
v -37.454502 0.033011 -7.593925
v -37.454498 20.433016 -7.593937
v -37.139870 0.033011 -7.593925
v -37.139862 20.433016 -7.593937
vt 0.625000 0.000000
vt 0.375000 0.250000
vt 0.375000 0.000000
vt 0.625000 0.250000
vt 0.375000 0.500000
vt 0.625000 0.500000
vt 0.375000 0.750000
vt 0.625000 0.750000
vt 0.375000 1.000000
vt 0.125000 0.750000
vt 0.125000 0.500000
vt 0.875000 0.500000
vt 0.625000 1.000000
vt 0.875000 0.750000
vn 0.0000 -0.0000 -1.0000
vn 1.0000 -0.0000 0.0000
vn 0.0000 0.0000 1.0000
vn -1.0000 0.0000 -0.0000
vn 0.0000 -1.0000 0.0000
vn 0.0000 1.0000 -0.0000
usemtl Wall.118
s 1
f 2/1/1 3/2/1 1/3/1
f 4/4/2 7/5/2 3/2/2
f 8/6/3 5/7/3 7/5/3
f 6/8/4 1/9/4 5/7/4
f 7/5/5 1/10/5 3/11/5
f 4/12/6 6/8/6 8/6/6
f 8/6/3 6/8/3 5/7/3
f 2/1/1 4/4/1 3/2/1
f 4/4/2 8/6/2 7/5/2
f 6/8/4 2/13/4 1/9/4
f 7/5/5 5/7/5 1/10/5
f 4/12/6 2/14/6 6/8/6
o Cube.005_Cube.094_Cube.005_Cube.002_Cube.005_Cube.094_Cube.005_Cube.003
v -37.454502 0.042855 -8.044478
v -37.454498 4.042860 -8.044478
v -37.139870 0.042855 -8.044478
v -37.139862 4.042860 -8.044478
v -37.454506 0.042867 24.910074
v -37.454498 4.042868 24.910074
v -37.139870 0.042867 24.910074
v -37.139866 4.042868 24.910074
vt 0.625000 0.000000
vt 0.375000 0.250000
vt 0.375000 0.000000
vt 0.625000 0.250000
vt 0.375000 0.500000
vt 0.625000 0.500000
vt 0.375000 0.750000
vt 0.625000 0.750000
vt 0.375000 1.000000
vt 0.125000 0.750000
vt 0.125000 0.500000
vt 0.875000 0.500000
vt 0.625000 1.000000
vt 0.875000 0.750000
vn 0.0000 0.0000 -1.0000
vn 1.0000 -0.0000 0.0000
vn 0.0000 0.0000 1.0000
vn -1.0000 0.0000 -0.0000
vn 0.0000 -1.0000 0.0000
vn 0.0000 1.0000 -0.0000
usemtl Wall.119
s 1
f 10/15/7 11/16/7 9/17/7
f 12/18/8 15/19/8 11/16/8
f 16/20/9 13/21/9 15/19/9
f 14/22/10 9/23/10 13/21/10
f 15/19/11 9/24/11 11/25/11
f 12/26/12 14/22/12 16/20/12
f 16/20/9 14/22/9 13/21/9
f 10/15/7 12/18/7 11/16/7
f 12/18/8 16/20/8 15/19/8
f 14/22/10 10/27/10 9/23/10
f 15/19/11 13/21/11 9/24/11
f 12/26/12 10/28/12 14/22/12
o Cube.080_Cube.081_Cube.080_Cube.002_Cube.080_Cube.081_Cube.080_Cube.003
v -37.454502 16.072857 -8.044481
v -37.454498 20.072859 -8.044484
v -37.139870 16.072857 -8.044481
v -37.139862 20.072859 -8.044484
v -37.454506 16.072865 24.910069
v -37.454498 20.072866 24.910069
v -37.139870 16.072865 24.910069
v -37.139866 20.072866 24.910069
vt 0.625000 0.000000
vt 0.375000 0.250000
vt 0.375000 0.000000
vt 0.625000 0.250000
vt 0.375000 0.500000
vt 0.625000 0.500000
vt 0.375000 0.750000
vt 0.625000 0.750000
vt 0.375000 1.000000
vt 0.125000 0.750000
vt 0.125000 0.500000
vt 0.875000 0.500000
vt 0.625000 1.000000
vt 0.875000 0.750000
vn 0.0000 -0.0000 -1.0000
vn 1.0000 -0.0000 0.0000
vn 0.0000 0.0000 1.0000
vn -1.0000 0.0000 -0.0000
vn 0.0000 -1.0000 0.0000
vn 0.0000 1.0000 -0.0000
usemtl Wall.122
s 1
f 18/29/13 19/30/13 17/31/13
f 20/32/14 23/33/14 19/30/14
f 24/34/15 21/35/15 23/33/15
f 22/36/16 17/37/16 21/35/16
f 23/33/17 17/38/17 19/39/17
f 20/40/18 22/36/18 24/34/18
f 24/34/15 22/36/15 21/35/15
f 18/29/13 20/32/13 19/30/13
f 20/32/14 24/34/14 23/33/14
f 22/36/16 18/41/16 17/37/16
f 23/33/17 21/35/17 17/38/17
f 20/40/18 18/42/18 22/36/18
o Cube.082_Cube.083_Cube.082_Cube.002_Cube.082_Cube.083_Cube.082_Cube.003
v -37.454502 0.054300 19.544981
v -37.454498 20.054306 19.544973
v -37.139870 0.054300 19.544981
v -37.139862 20.054306 19.544973
v -37.454502 0.054304 24.925318
v -37.454498 20.054306 24.925310
v -37.139870 0.054304 24.925318
v -37.139862 20.054306 24.925310
vt 0.625000 0.000000
vt 0.375000 0.250000
vt 0.375000 0.000000
vt 0.625000 0.250000
vt 0.375000 0.500000
vt 0.625000 0.500000
vt 0.375000 0.750000
vt 0.625000 0.750000
vt 0.375000 1.000000
vt 0.125000 0.750000
vt 0.125000 0.500000
vt 0.875000 0.500000
vt 0.625000 1.000000
vt 0.875000 0.750000
vn 0.0000 -0.0000 -1.0000
vn 1.0000 -0.0000 0.0000
vn 0.0000 0.0000 1.0000
vn -1.0000 0.0000 -0.0000
vn 0.0000 -1.0000 0.0000
vn 0.0000 1.0000 0.0000
usemtl Wall.124
s 1
f 26/43/19 27/44/19 25/45/19
f 28/46/20 31/47/20 27/44/20
f 32/48/21 29/49/21 31/47/21
f 30/50/22 25/51/22 29/49/22
f 31/47/23 25/52/23 27/53/23
f 28/54/24 30/50/24 32/48/24
f 32/48/21 30/50/21 29/49/21
f 26/43/19 28/46/19 27/44/19
f 28/46/20 32/48/20 31/47/20
f 30/50/22 26/55/22 25/51/22
f 31/47/23 29/49/23 25/52/23
f 28/54/24 26/56/24 30/50/24
o Cube_Cube.008_Cube_Cube.005
v -38.460777 4.017469 24.954494
v -38.460777 4.017439 -24.831074
v -38.460777 0.044305 24.954498
v -38.460777 0.044275 -24.831070
v -35.999222 4.017469 24.954494
v -35.999222 4.017439 -24.831074
v -35.999222 0.044305 24.954498
v -35.999222 0.044275 -24.831070
vt 0.625000 0.000000
vt 0.375000 0.250000
vt 0.375000 0.000000
vt 0.625000 0.250000
vt 0.375000 0.500000
vt 0.625000 0.500000
vt 0.375000 0.750000
vt 0.625000 0.750000
vt 0.375000 1.000000
vt 0.125000 0.750000
vt 0.125000 0.500000
vt 0.875000 0.500000
vt 0.625000 1.000000
vt 0.875000 0.750000
vn -1.0000 -0.0000 0.0000
vn 0.0000 -1.0000 0.0000
vn 1.0000 0.0000 0.0000
vn 0.0000 1.0000 -0.0000
vn 0.0000 0.0000 1.0000
vn 0.0000 -0.0000 -1.0000
usemtl None.002
s off
f 34/57/25 35/58/25 33/59/25
f 36/60/26 39/61/26 35/58/26
f 40/62/27 37/63/27 39/61/27
f 38/64/28 33/65/28 37/63/28
f 39/61/29 33/66/29 35/67/29
f 36/68/30 38/64/30 40/62/30
f 34/57/25 36/60/25 35/58/25
f 36/60/26 40/62/26 39/61/26
f 40/62/27 38/64/27 37/63/27
f 38/64/28 34/69/28 33/65/28
f 39/61/29 37/63/29 33/66/29
f 36/68/30 34/70/30 38/64/30
