# Blender v3.5.1 OBJ File: ''
# www.blender.org
mtllib door2-1.mtl
o Cube.034_Cube.129_Cube.034_Cube.001
v 6.383782 4.403461 -7.515224
v 6.383782 0.083452 -7.515219
v 6.383782 4.403461 -7.974220
v 6.383782 0.083451 -7.974219
v 1.471299 4.403461 -7.974228
v 1.471299 0.083451 -7.974227
v 1.471299 4.403461 -7.515234
v 1.471299 0.083452 -7.515228
v 6.383782 5.391119 -7.515224
v 6.383782 5.391119 -7.974220
v 1.471299 5.391119 -7.515234
v 1.471299 5.391119 -7.974228
v 6.306695 5.864324 -7.515224
v 6.306695 5.864324 -7.974220
v 1.548385 5.864324 -7.515234
v 1.548385 5.864324 -7.974228
v 6.111915 6.511588 -7.515224
v 6.111915 6.511588 -7.974220
v 1.743167 6.511588 -7.515234
v 1.743167 6.511588 -7.974229
v 5.923125 6.970582 -7.515224
v 5.923125 6.970582 -7.974220
v 1.931955 6.970582 -7.515234
v 1.931955 6.970582 -7.974229
v 5.655126 7.391438 -7.515224
v 5.655126 7.391438 -7.974220
v 2.199956 7.391438 -7.515234
v 2.199956 7.391438 -7.974229
v 5.262770 7.820239 -7.515224
v 5.262770 7.820239 -7.974220
v 2.592312 7.820239 -7.515234
v 2.592312 7.820239 -7.974229
v 4.736504 8.143955 -7.515224
v 4.736504 8.143955 -7.974220
v 3.118578 8.143955 -7.515234
v 3.118578 8.143955 -7.974229
v 4.253226 8.285203 -7.515224
v 4.253226 8.285203 -7.974220
v 3.601858 8.285203 -7.515234
v 3.601858 8.285203 -7.974229
vt 0.375000 0.500000
vt 0.625000 0.750000
vt 0.625000 0.500000
vt 0.375000 0.500000
vt 0.625000 0.750000
vt 0.375000 0.750000
vt 0.375000 0.750000
vt 0.625000 0.500000
vt 0.625000 0.750000
vt 0.625000 0.750000
vt 0.625000 0.750000
vt 0.625000 0.500000
vt 0.625000 0.500000
vt 0.625000 0.500000
vt 0.625000 0.500000
vt 0.625000 0.500000
vt 0.625000 0.750000
vt 0.625000 0.750000
vt 0.625000 0.750000
vt 0.625000 0.750000
vt 0.625000 0.500000
vt 0.625000 0.750000
vt 0.625000 0.750000
vt 0.625000 0.750000
vt 0.625000 0.500000
vt 0.625000 0.500000
vt 0.625000 0.500000
vt 0.625000 0.500000
vt 0.625000 0.500000
vt 0.625000 0.750000
vt 0.625000 0.750000
vt 0.625000 0.750000
vt 0.625000 0.500000
vt 0.625000 0.750000
vt 0.625000 0.750000
vt 0.625000 0.500000
vt 0.625000 0.500000
vt 0.625000 0.750000
vt 0.625000 0.500000
vt 0.625000 0.500000
vn 1.0000 0.0000 0.0000
vn -1.0000 -0.0000 0.0000
vn -0.0000 -1.0000 0.0000
vn 0.0000 -0.0000 -1.0000
vn -0.0000 0.0000 1.0000
vn 0.9870 0.1608 0.0000
vn -0.9870 0.1608 0.0000
vn -0.9248 0.3804 0.0000
vn -0.9576 0.2882 0.0000
vn 0.9576 0.2882 0.0000
vn 0.9248 0.3804 0.0000
vn 0.8435 0.5371 0.0000
vn -0.8435 0.5371 0.0000
vn -0.7378 0.6751 0.0000
vn 0.7378 0.6751 0.0000
vn 0.5239 0.8518 0.0000
vn -0.5239 0.8518 0.0000
vn 0.0000 1.0000 0.0000
vn 0.2805 0.9598 0.0000
vn -0.2805 0.9598 0.0000
vn -0.0000 -0.0001 1.0000
usemtl Doorin.010
s 1
f 2/1/1 3/2/1 1/3/1
f 8/4/2 5/5/2 6/6/2
f 4/7/3 8/4/3 6/6/3
f 4/7/4 5/5/4 3/2/4
f 1/3/5 8/4/5 2/1/5
f 7/8/2 12/9/2 5/5/2
f 12/9/4 14/10/4 10/11/4
f 3/2/1 9/12/1 1/3/1
f 5/5/4 10/11/4 3/2/4
f 1/3/5 11/13/5 7/8/5
f 13/14/5 19/15/5 15/16/5
f 10/11/6 13/14/6 9/12/6
f 11/13/5 13/14/5 15/16/5
f 11/13/7 16/17/7 12/9/7
f 19/15/8 24/18/8 20/19/8
f 16/17/9 19/15/9 20/19/9
f 14/10/4 20/19/4 18/20/4
f 14/10/10 17/21/10 13/14/10
f 22/22/4 28/23/4 26/24/4
f 20/19/4 22/22/4 18/20/4
f 18/20/11 21/25/11 17/21/11
f 19/15/5 21/25/5 23/26/5
f 25/27/5 31/28/5 27/29/5
f 22/22/12 25/27/12 21/25/12
f 21/25/5 27/29/5 23/26/5
f 23/26/13 28/23/13 24/18/13
f 32/30/4 34/31/4 30/32/4
f 27/29/14 32/30/14 28/23/14
f 28/23/4 30/32/4 26/24/4
f 26/24/15 29/33/15 25/27/15
f 34/31/4 40/34/4 38/35/4
f 30/32/16 33/36/16 29/33/16
f 29/33/5 35/37/5 31/28/5
f 31/28/17 36/38/17 32/30/17
f 38/35/18 39/39/18 37/40/18
f 34/31/19 37/40/19 33/36/19
f 33/36/5 39/39/5 35/37/5
f 35/37/20 40/34/20 36/38/20
f 2/1/1 4/7/1 3/2/1
f 8/4/2 7/8/2 5/5/2
f 4/7/3 2/1/3 8/4/3
f 4/7/4 6/6/4 5/5/4
f 1/3/5 7/8/5 8/4/5
f 7/8/2 11/13/2 12/9/2
f 12/9/4 16/17/4 14/10/4
f 3/2/1 10/11/1 9/12/1
f 5/5/4 12/9/4 10/11/4
f 1/3/5 9/12/5 11/13/5
f 13/14/5 17/21/5 19/15/5
f 10/11/6 14/10/6 13/14/6
f 11/13/5 9/12/5 13/14/5
f 11/13/7 15/16/7 16/17/7
f 19/15/8 23/26/8 24/18/8
f 16/17/9 15/16/9 19/15/9
f 14/10/4 16/17/4 20/19/4
f 14/10/10 18/20/10 17/21/10
f 22/22/4 24/18/4 28/23/4
f 20/19/4 24/18/4 22/22/4
f 18/20/11 22/22/11 21/25/11
f 19/15/5 17/21/5 21/25/5
f 25/27/5 29/33/5 31/28/5
f 22/22/12 26/24/12 25/27/12
f 21/25/5 25/27/5 27/29/5
f 23/26/13 27/29/13 28/23/13
f 32/30/4 36/38/4 34/31/4
f 27/29/14 31/28/14 32/30/14
f 28/23/4 32/30/4 30/32/4
f 26/24/15 30/32/15 29/33/15
f 34/31/4 36/38/4 40/34/4
f 30/32/16 34/31/16 33/36/16
f 29/33/5 33/36/5 35/37/5
f 31/28/17 35/37/17 36/38/17
f 38/35/18 40/34/18 39/39/18
f 34/31/19 38/35/19 37/40/19
f 33/36/5 37/40/21 39/39/5
f 35/37/20 39/39/20 40/34/20
o Cube.035_Cube.130_Cube.035_Cube.001
v -18.616219 4.403461 -7.515224
v -18.616219 0.083453 -7.515218
v -18.616219 4.403461 -7.974219
v -18.616219 0.083453 -7.974218
v -23.528702 4.403461 -7.974227
v -23.528702 0.083453 -7.974227
v -23.528702 4.403461 -7.515228
v -23.528702 0.083453 -7.515227
v -18.616219 5.391119 -7.515224
v -18.616219 5.391119 -7.974219
v -23.528702 5.391119 -7.515228
v -23.528702 5.391119 -7.974228
v -18.693306 5.864325 -7.515224
v -18.693306 5.864325 -7.974219
v -23.451614 5.864325 -7.515228
v -23.451614 5.864325 -7.974228
v -18.888084 6.511589 -7.515224
v -18.888084 6.511589 -7.974219
v -23.256832 6.511589 -7.515228
v -23.256832 6.511589 -7.974228
v -19.076874 6.970582 -7.515224
v -19.076874 6.970582 -7.974219
v -23.068045 6.970582 -7.515228
v -23.068045 6.970582 -7.974228
v -19.344875 7.391438 -7.515224
v -19.344875 7.391438 -7.974219
v -22.800045 7.391438 -7.515228
v -22.800045 7.391438 -7.974228
v -19.737230 7.820240 -7.515224
v -19.737230 7.820240 -7.974219
v -22.407688 7.820240 -7.515228
v -22.407688 7.820240 -7.974228
v -20.263496 8.143957 -7.515224
v -20.263496 8.143956 -7.974219
v -21.881420 8.143957 -7.515228
v -21.881420 8.143956 -7.974228
v -20.746773 8.285204 -7.515224
v -20.746773 8.285204 -7.974219
v -21.398140 8.285204 -7.515228
v -21.398140 8.285204 -7.974228
vt 0.375000 0.750000
vt 0.625000 0.500000
vt 0.375000 0.500000
vt 0.625000 0.500000
vt 0.375000 0.750000
vt 0.375000 0.500000
vt 0.625000 0.750000
vt 0.625000 0.750000
vt 0.625000 0.750000
vt 0.625000 0.750000
vt 0.625000 0.750000
vt 0.625000 0.500000
vt 0.625000 0.500000
vt 0.625000 0.500000
vt 0.625000 0.500000
vt 0.625000 0.500000
vt 0.625000 0.750000
vt 0.625000 0.750000
vt 0.625000 0.750000
vt 0.625000 0.750000
vt 0.625000 0.500000
vt 0.625000 0.750000
vt 0.625000 0.750000
vt 0.625000 0.500000
vt 0.625000 0.500000
vt 0.625000 0.500000
vt 0.625000 0.500000
vt 0.625000 0.500000
vt 0.625000 0.750000
vt 0.625000 0.750000
vt 0.625000 0.750000
vt 0.625000 0.750000
vt 0.625000 0.750000
vt 0.625000 0.500000
vt 0.625000 0.750000
vt 0.625000 0.750000
vt 0.625000 0.500000
vt 0.625000 0.500000
vt 0.625000 0.500000
vt 0.625000 0.500000
vn 1.0000 0.0000 0.0000
vn -1.0000 -0.0000 0.0000
vn -0.0000 -1.0000 0.0000
vn 0.0000 -0.0000 -1.0000
vn -0.0000 0.0000 1.0000
vn 0.9870 0.1608 0.0000
vn -0.9870 0.1608 0.0000
vn -0.9248 0.3804 0.0000
vn -0.9576 0.2882 0.0000
vn 0.9576 0.2882 0.0000
vn 0.9248 0.3804 0.0000
vn 0.8435 0.5371 0.0000
vn -0.8435 0.5371 0.0000
vn -0.7378 0.6751 0.0000
vn 0.7378 0.6751 0.0000
vn 0.5239 0.8518 -0.0000
vn -0.5239 0.8518 -0.0000
vn 0.0000 1.0000 0.0000
vn 0.2805 0.9598 0.0000
vn -0.2805 0.9598 0.0000
usemtl Doorin.010
s 1
f 44/41/22 41/42/22 42/43/22
f 47/44/23 46/45/23 48/46/23
f 44/41/24 48/46/24 46/45/24
f 44/41/25 45/47/25 43/48/25
f 41/42/26 48/46/26 42/43/26
f 47/44/23 52/49/23 45/47/23
f 52/49/25 54/50/25 50/51/25
f 43/48/22 49/52/22 41/42/22
f 45/47/25 50/51/25 43/48/25
f 41/42/26 51/53/26 47/44/26
f 53/54/26 59/55/26 55/56/26
f 50/51/27 53/54/27 49/52/27
f 51/53/26 53/54/26 55/56/26
f 51/53/28 56/57/28 52/49/28
f 59/55/29 64/58/29 60/59/29
f 55/56/30 60/59/30 56/57/30
f 54/50/25 60/59/25 58/60/25
f 54/50/31 57/61/31 53/54/31
f 64/58/25 66/62/25 62/63/25
f 60/59/25 62/63/25 58/60/25
f 58/60/32 61/64/32 57/61/32
f 57/61/26 63/65/26 59/55/26
f 65/66/26 71/67/26 67/68/26
f 62/63/33 65/66/33 61/64/33
f 63/65/26 65/66/26 67/68/26
f 63/65/34 68/69/34 64/58/34
f 70/70/25 76/71/25 74/72/25
f 67/68/35 72/73/35 68/69/35
f 66/62/25 72/73/25 70/70/25
f 66/62/36 69/74/36 65/66/36
f 74/72/25 80/75/25 78/76/25
f 69/74/37 74/72/37 73/77/37
f 69/74/26 75/78/26 71/67/26
f 71/67/38 76/71/38 72/73/38
f 78/76/39 79/79/39 77/80/39
f 74/72/40 77/80/40 73/77/40
f 73/77/26 79/79/26 75/78/26
f 75/78/41 80/75/41 76/71/41
f 44/41/22 43/48/22 41/42/22
f 47/44/23 45/47/23 46/45/23
f 44/41/24 42/43/24 48/46/24
f 44/41/25 46/45/25 45/47/25
f 41/42/26 47/44/26 48/46/26
f 47/44/23 51/53/23 52/49/23
f 52/49/25 56/57/25 54/50/25
f 43/48/22 50/51/22 49/52/22
f 45/47/25 52/49/25 50/51/25
f 41/42/26 49/52/26 51/53/26
f 53/54/26 57/61/26 59/55/26
f 50/51/27 54/50/27 53/54/27
f 51/53/26 49/52/26 53/54/26
f 51/53/28 55/56/28 56/57/28
f 59/55/29 63/65/29 64/58/29
f 55/56/30 59/55/30 60/59/30
f 54/50/25 56/57/25 60/59/25
f 54/50/31 58/60/31 57/61/31
f 64/58/25 68/69/25 66/62/25
f 60/59/25 64/58/25 62/63/25
f 58/60/32 62/63/32 61/64/32
f 57/61/26 61/64/26 63/65/26
f 65/66/26 69/74/26 71/67/26
f 62/63/33 66/62/33 65/66/33
f 63/65/26 61/64/26 65/66/26
f 63/65/34 67/68/34 68/69/34
f 70/70/25 72/73/25 76/71/25
f 67/68/35 71/67/35 72/73/35
f 66/62/25 68/69/25 72/73/25
f 66/62/36 70/70/36 69/74/36
f 74/72/25 76/71/25 80/75/25
f 69/74/37 70/70/37 74/72/37
f 69/74/26 73/77/26 75/78/26
f 71/67/38 75/78/38 76/71/38
f 78/76/39 80/75/39 79/79/39
f 74/72/40 78/76/40 77/80/40
f 73/77/26 77/80/26 79/79/26
f 75/78/41 79/79/41 80/75/41
