# Blender v3.5.1 OBJ File: ''
# www.blender.org
mtllib door1-1.mtl
o Cube.033_Cube.128_Cube.033_Cube.001
v 17.383781 4.403461 -7.515224
v 17.383781 0.083452 -7.515219
v 17.383781 4.403461 -7.974220
v 17.383781 0.083451 -7.974219
v 12.471299 4.403461 -7.974228
v 12.471299 0.083451 -7.974227
v 12.471299 4.403461 -7.515234
v 12.471299 0.083452 -7.515228
v 17.383781 5.391119 -7.515224
v 17.383781 5.391119 -7.974220
v 12.471299 5.391119 -7.515234
v 12.471299 5.391119 -7.974228
v 17.306694 5.864324 -7.515224
v 17.306694 5.864324 -7.974220
v 12.548385 5.864324 -7.515234
v 12.548385 5.864324 -7.974228
v 17.111916 6.511588 -7.515224
v 17.111916 6.511588 -7.974220
v 12.743167 6.511588 -7.515234
v 12.743167 6.511588 -7.974229
v 16.923126 6.970582 -7.515224
v 16.923126 6.970582 -7.974220
v 12.931955 6.970582 -7.515234
v 12.931955 6.970582 -7.974229
v 16.655125 7.391438 -7.515224
v 16.655125 7.391438 -7.974220
v 13.199956 7.391438 -7.515234
v 13.199956 7.391438 -7.974229
v 16.262770 7.820239 -7.515224
v 16.262770 7.820239 -7.974220
v 13.592312 7.820239 -7.515234
v 13.592312 7.820239 -7.974229
v 15.736504 8.143955 -7.515224
v 15.736504 8.143955 -7.974220
v 14.118578 8.143955 -7.515234
v 14.118578 8.143955 -7.974229
v 15.253226 8.285203 -7.515224
v 15.253226 8.285203 -7.974220
v 14.601858 8.285203 -7.515234
v 14.601858 8.285203 -7.974229
vt 0.375000 0.500000
vt 0.625000 0.750000
vt 0.625000 0.500000
vt 0.375000 0.500000
vt 0.625000 0.750000
vt 0.375000 0.750000
vt 0.375000 0.750000
vt 0.625000 0.500000
vt 0.625000 0.750000
vt 0.625000 0.750000
vt 0.625000 0.750000
vt 0.625000 0.500000
vt 0.625000 0.500000
vt 0.625000 0.500000
vt 0.625000 0.500000
vt 0.625000 0.500000
vt 0.625000 0.750000
vt 0.625000 0.750000
vt 0.625000 0.750000
vt 0.625000 0.750000
vt 0.625000 0.500000
vt 0.625000 0.750000
vt 0.625000 0.750000
vt 0.625000 0.750000
vt 0.625000 0.500000
vt 0.625000 0.500000
vt 0.625000 0.500000
vt 0.625000 0.500000
vt 0.625000 0.500000
vt 0.625000 0.750000
vt 0.625000 0.750000
vt 0.625000 0.750000
vt 0.625000 0.500000
vt 0.625000 0.750000
vt 0.625000 0.750000
vt 0.625000 0.500000
vt 0.625000 0.500000
vt 0.625000 0.750000
vt 0.625000 0.500000
vt 0.625000 0.500000
vn 1.0000 0.0000 0.0000
vn -1.0000 0.0000 0.0000
vn -0.0000 -1.0000 0.0000
vn 0.0000 -0.0000 -1.0000
vn -0.0000 0.0000 1.0000
vn 0.9870 0.1608 0.0000
vn -0.9870 0.1608 0.0000
vn -0.9248 0.3804 0.0000
vn -0.9576 0.2882 0.0000
vn 0.9576 0.2882 0.0000
vn 0.9248 0.3804 0.0000
vn 0.8435 0.5371 0.0000
vn -0.8435 0.5371 0.0000
vn -0.7378 0.6751 0.0000
vn 0.7378 0.6751 0.0000
vn 0.5239 0.8518 0.0000
vn -0.5239 0.8518 0.0000
vn 0.0000 1.0000 0.0000
vn 0.2805 0.9598 0.0000
vn -0.2805 0.9598 0.0000
vn -0.0000 -0.0001 1.0000
usemtl Doorin.010
s 1
f 2/1/1 3/2/1 1/3/1
f 8/4/2 5/5/2 6/6/2
f 4/7/3 8/4/3 6/6/3
f 4/7/4 5/5/4 3/2/4
f 1/3/5 8/4/5 2/1/5
f 7/8/2 12/9/2 5/5/2
f 12/9/4 14/10/4 10/11/4
f 3/2/1 9/12/1 1/3/1
f 5/5/4 10/11/4 3/2/4
f 1/3/5 11/13/5 7/8/5
f 13/14/5 19/15/5 15/16/5
f 10/11/6 13/14/6 9/12/6
f 11/13/5 13/14/5 15/16/5
f 11/13/7 16/17/7 12/9/7
f 19/15/8 24/18/8 20/19/8
f 16/17/9 19/15/9 20/19/9
f 14/10/4 20/19/4 18/20/4
f 14/10/10 17/21/10 13/14/10
f 22/22/4 28/23/4 26/24/4
f 20/19/4 22/22/4 18/20/4
f 18/20/11 21/25/11 17/21/11
f 19/15/5 21/25/5 23/26/5
f 25/27/5 31/28/5 27/29/5
f 22/22/12 25/27/12 21/25/12
f 21/25/5 27/29/5 23/26/5
f 23/26/13 28/23/13 24/18/13
f 32/30/4 34/31/4 30/32/4
f 27/29/14 32/30/14 28/23/14
f 28/23/4 30/32/4 26/24/4
f 26/24/15 29/33/15 25/27/15
f 34/31/4 40/34/4 38/35/4
f 30/32/16 33/36/16 29/33/16
f 29/33/5 35/37/5 31/28/5
f 31/28/17 36/38/17 32/30/17
f 38/35/18 39/39/18 37/40/18
f 34/31/19 37/40/19 33/36/19
f 33/36/5 39/39/5 35/37/5
f 35/37/20 40/34/20 36/38/20
f 2/1/1 4/7/1 3/2/1
f 8/4/2 7/8/2 5/5/2
f 4/7/3 2/1/3 8/4/3
f 4/7/4 6/6/4 5/5/4
f 1/3/5 7/8/5 8/4/5
f 7/8/2 11/13/2 12/9/2
f 12/9/4 16/17/4 14/10/4
f 3/2/1 10/11/1 9/12/1
f 5/5/4 12/9/4 10/11/4
f 1/3/5 9/12/5 11/13/5
f 13/14/5 17/21/5 19/15/5
f 10/11/6 14/10/6 13/14/6
f 11/13/5 9/12/5 13/14/5
f 11/13/7 15/16/7 16/17/7
f 19/15/8 23/26/8 24/18/8
f 16/17/9 15/16/9 19/15/9
f 14/10/4 16/17/4 20/19/4
f 14/10/10 18/20/10 17/21/10
f 22/22/4 24/18/4 28/23/4
f 20/19/4 24/18/4 22/22/4
f 18/20/11 22/22/11 21/25/11
f 19/15/5 17/21/5 21/25/5
f 25/27/5 29/33/5 31/28/5
f 22/22/12 26/24/12 25/27/12
f 21/25/5 25/27/5 27/29/5
f 23/26/13 27/29/13 28/23/13
f 32/30/4 36/38/4 34/31/4
f 27/29/14 31/28/14 32/30/14
f 28/23/4 32/30/4 30/32/4
f 26/24/15 30/32/15 29/33/15
f 34/31/4 36/38/4 40/34/4
f 30/32/16 34/31/16 33/36/16
f 29/33/5 33/36/5 35/37/5
f 31/28/17 35/37/17 36/38/17
f 38/35/18 40/34/18 39/39/18
f 34/31/19 38/35/19 37/40/19
f 33/36/5 37/40/21 39/39/5
f 35/37/20 39/39/20 40/34/20
