# Blender v3.5.1 OBJ File: ''
# www.blender.org
mtllib handle-pintu.mtl
o Cube.088_Cube.002_Cube.088_Cube.004
v -2.552362 5.484875 24.778522
v -2.552362 7.684875 24.778513
v -2.552362 5.484875 24.463888
v -2.552362 7.684875 24.463877
v -2.928986 5.484875 24.778522
v -2.928986 7.684875 24.778513
v -2.928986 5.484875 24.463888
v -2.928986 7.684875 24.463877
vt 0.625000 0.000000
vt 0.375000 0.000000
vt 0.375000 0.250000
vt 0.625000 0.250000
vt 0.375000 0.500000
vt 0.625000 0.500000
vt 0.375000 0.750000
vt 0.625000 0.750000
vt 0.375000 1.000000
vt 0.125000 0.500000
vt 0.125000 0.750000
vt 0.875000 0.500000
vt 0.625000 1.000000
vt 0.875000 0.750000
vn 1.0000 -0.0000 0.0000
vn 0.0000 -0.0000 -1.0000
vn -1.0000 -0.0000 0.0000
vn 0.0000 0.0000 1.0000
vn 0.0000 -1.0000 0.0000
vn 0.0000 1.0000 0.0000
usemtl Wall.079
s 1
f 2/1/1 1/2/1 3/3/1
f 4/4/2 3/3/2 7/5/2
f 8/6/3 7/5/3 5/7/3
f 6/8/4 5/7/4 1/9/4
f 7/5/5 3/10/5 1/11/5
f 4/12/6 8/6/6 6/8/6
f 8/6/3 5/7/3 6/8/3
f 2/1/1 3/3/1 4/4/1
f 4/4/2 7/5/2 8/6/2
f 6/8/4 1/9/4 2/13/4
f 7/5/5 1/11/5 5/7/5
f 4/12/6 6/8/6 2/14/6
o Cube.088_Cube.003_Cube.088_Cube.006
v -4.652362 5.484875 24.778522
v -4.652362 7.684875 24.778513
v -4.652362 5.484875 24.463888
v -4.652362 7.684875 24.463877
v -5.028986 5.484875 24.778522
v -5.028986 7.684875 24.778513
v -5.028986 5.484875 24.463888
v -5.028986 7.684875 24.463877
vt 0.625000 0.000000
vt 0.375000 0.000000
vt 0.375000 0.250000
vt 0.625000 0.250000
vt 0.375000 0.500000
vt 0.625000 0.500000
vt 0.375000 0.750000
vt 0.625000 0.750000
vt 0.375000 1.000000
vt 0.125000 0.500000
vt 0.125000 0.750000
vt 0.875000 0.500000
vt 0.625000 1.000000
vt 0.875000 0.750000
vn 1.0000 0.0000 0.0000
vn 0.0000 -0.0000 -1.0000
vn -1.0000 -0.0000 0.0000
vn 0.0000 0.0000 1.0000
vn 0.0000 -1.0000 0.0000
vn 0.0000 1.0000 0.0000
usemtl Wall.081
s 1
f 10/15/7 9/16/7 11/17/7
f 12/18/8 11/17/8 15/19/8
f 16/20/9 15/19/9 13/21/9
f 14/22/10 13/21/10 9/23/10
f 15/19/11 11/24/11 9/25/11
f 12/26/12 16/20/12 14/22/12
f 16/20/9 13/21/9 14/22/9
f 10/15/7 11/17/7 12/18/7
f 12/18/8 15/19/8 16/20/8
f 14/22/10 9/23/10 10/27/10
f 15/19/11 9/25/11 13/21/11
f 12/26/12 14/22/12 10/28/12
