# Blender v3.5.1 OBJ File: ''
# www.blender.org
mtllib meja4-2.mtl
o Cube.003_Cube.368_Cube.003_Cube.004
v -17.609491 3.114530 -2.257701
v -17.527945 3.169034 -2.257710
v -17.542723 3.114530 -2.293390
v -17.735830 3.169034 -2.004399
v -17.651827 3.223539 -2.042999
v -17.716051 3.169034 -2.069602
v -17.470276 3.114530 -1.557814
v -17.394932 3.169034 -1.589013
v -17.462742 3.169034 -1.595691
v -17.121849 3.114530 -2.209672
v -17.201828 3.169034 -2.225590
v -17.149157 3.169034 -2.182364
v -17.470276 3.114530 -2.315366
v -17.462740 3.169034 -2.277489
v -17.527943 3.169034 -1.615470
v -17.542723 3.114530 -1.579790
v -17.105932 3.169034 -2.129694
v -17.073820 3.114530 -2.151150
v -17.394932 3.114530 -2.322787
v -17.394932 3.169034 -2.284167
v -17.588036 3.169034 -1.647590
v -17.609491 3.114530 -1.615479
v -17.073812 3.169034 -2.069602
v -17.038132 3.114530 -2.084381
v -17.668015 3.114530 -1.663508
v -17.640705 3.169034 -1.690816
v -17.054033 3.169034 -2.004399
v -17.016155 3.114530 -2.011934
v -17.683931 3.169034 -1.743487
v -17.716043 3.114530 -1.722031
v -17.008736 3.114530 -1.936590
v -17.047354 3.169034 -1.936590
v -17.716051 3.169034 -1.803578
v -17.751732 3.114530 -1.788799
v -17.054033 3.169034 -1.868781
v -17.016155 3.114530 -1.861246
v -17.735830 3.169034 -1.868781
v -17.773708 3.114530 -1.861247
v -17.038132 3.114530 -1.788799
v -17.073812 3.169034 -1.803578
v -17.781128 3.114530 -1.936590
v -17.742508 3.169034 -1.936590
v -17.073820 3.114530 -1.722030
v -17.105932 3.169034 -1.743486
v -17.773708 3.114530 -2.011933
v -17.121849 3.114530 -1.663508
v -17.149158 3.169034 -1.690816
v -17.751732 3.114530 -2.084382
v -17.180372 3.114530 -1.615479
v -17.201828 3.169034 -1.647590
v -17.683931 3.169034 -2.129693
v -17.716043 3.114530 -2.151149
v -17.247141 3.114530 -1.579791
v -17.261919 3.169034 -1.615470
v -17.327124 3.169034 -2.277489
v -17.319588 3.114530 -2.315366
v -17.668015 3.114530 -2.209672
v -17.640705 3.169034 -2.182364
v -17.327122 3.169034 -1.595691
v -17.319588 3.114530 -1.557814
v -17.261919 3.169034 -2.257710
v -17.247141 3.114530 -2.293390
v -17.588036 3.169034 -2.225590
v -17.394932 3.114530 -1.550393
v -17.180372 3.114530 -2.257701
v -17.288523 3.223539 -2.193485
v -17.356958 3.263504 -2.127490
v -17.320444 3.263504 -2.116414
v -17.198313 3.223539 -1.739970
v -17.240450 3.223539 -1.705389
v -17.626131 3.223539 -2.091072
v -17.288523 3.223539 -1.679694
v -17.394932 3.223539 -2.214651
v -17.340685 3.223539 -2.209308
v -17.591551 3.223539 -2.133209
v -17.340685 3.223539 -1.663870
v -17.549414 3.223539 -2.167789
v -17.394932 3.223539 -1.658527
v -17.240448 3.223539 -2.167789
v -17.501341 3.223539 -2.193485
v -17.449179 3.223539 -1.663870
v -17.198313 3.223539 -2.133209
v -17.449179 3.223539 -2.209308
v -17.501341 3.223539 -1.679694
v -17.163733 3.223539 -2.091072
v -17.549416 3.223539 -1.705389
v -17.138037 3.223539 -2.042998
v -17.591551 3.223539 -1.739970
v -17.122213 3.223539 -1.990837
v -17.626131 3.223539 -1.782106
v -17.116871 3.223539 -1.936589
v -17.651827 3.223539 -1.830179
v -17.122213 3.223539 -1.882342
v -17.667650 3.223539 -1.882342
v -17.138037 3.223539 -1.830180
v -17.672993 3.223539 -1.936589
v -17.163733 3.223539 -1.782106
v -17.667650 3.223539 -1.990836
v -17.204029 3.263505 -1.974560
v -17.317074 3.285121 -1.936589
v -17.200289 3.263505 -1.936587
v -17.532566 3.263504 -2.074221
v -17.503069 3.263504 -2.098427
v -17.356958 3.263505 -1.745684
v -17.394932 3.263505 -1.741944
v -17.286793 3.263504 -2.098427
v -17.469418 3.263504 -2.116414
v -17.432905 3.263505 -1.745684
v -17.257298 3.263504 -2.074221
v -17.432905 3.263504 -2.127490
v -17.469418 3.263505 -1.756760
v -17.233091 3.263504 -2.044725
v -17.394932 3.263504 -2.131230
v -17.503069 3.263505 -1.774747
v -17.215105 3.263505 -2.011074
v -17.532566 3.263505 -1.798954
v -17.556772 3.263505 -1.828449
v -17.574759 3.263505 -1.862100
v -17.204029 3.263505 -1.898614
v -17.585835 3.263505 -1.898614
v -17.215105 3.263505 -1.862101
v -17.589575 3.263505 -1.936587
v -17.233091 3.263505 -1.828449
v -17.585835 3.263505 -1.974560
v -17.257298 3.263505 -1.798954
v -17.574759 3.263505 -2.011074
v -17.286795 3.263505 -1.774747
v -17.556772 3.263504 -2.044725
v -17.320444 3.263505 -1.756760
v -17.466862 3.285121 -1.966383
v -17.424726 3.285121 -1.864658
v -17.323002 3.285121 -1.906794
v -17.459667 3.285121 -1.893334
v -17.466862 3.285121 -1.906794
v -17.318571 3.285121 -1.921399
v -17.471292 3.285121 -1.921399
v -17.472790 3.285121 -1.936589
v -17.330196 3.285121 -1.893333
v -17.471292 3.285121 -1.951778
v -17.339878 3.285121 -1.881535
v -17.351677 3.285121 -1.871853
v -17.459667 3.285121 -1.979844
v -17.365137 3.285121 -1.864658
v -17.379742 3.285121 -2.012950
v -17.449986 3.285121 -1.991642
v -17.379742 3.285121 -1.860227
v -17.365137 3.285121 -2.008519
v -17.438187 3.285121 -2.001325
v -17.394932 3.285121 -1.858732
v -17.351677 3.285121 -2.001325
v -17.424726 3.285121 -2.008519
v -17.410122 3.285121 -1.860227
v -17.339878 3.285121 -1.991642
v -17.410122 3.285121 -2.012950
v -17.330196 3.285121 -1.979844
v -17.394932 3.285121 -2.014446
v -17.438187 3.285121 -1.871853
v -17.323002 3.285121 -1.966383
v -17.449986 3.285121 -1.881535
v -17.318571 3.285121 -1.951778
vt 0.210683 0.308841
vt 0.222918 0.315381
vt 0.222918 0.315381
vt 0.180592 0.263806
vt 0.184619 0.277082
vt 0.184619 0.277082
vt 0.236194 0.180592
vt 0.250000 0.179232
vt 0.236194 0.180592
vt 0.300041 0.300041
vt 0.289317 0.308841
vt 0.300041 0.300041
vt 0.236194 0.319408
vt 0.236194 0.319408
vt 0.222918 0.184619
vt 0.222918 0.184619
vt 0.308841 0.289317
vt 0.308841 0.289317
vt 0.250000 0.320768
vt 0.250000 0.320768
vt 0.210683 0.191159
vt 0.210683 0.191159
vt 0.315381 0.277082
vt 0.315381 0.277082
vt 0.199959 0.199959
vt 0.199959 0.199959
vt 0.319408 0.263806
vt 0.319408 0.263806
vt 0.191159 0.210683
vt 0.191159 0.210683
vt 0.320768 0.250000
vt 0.320768 0.250000
vt 0.184619 0.222918
vt 0.184619 0.222918
vt 0.319408 0.236194
vt 0.319408 0.236194
vt 0.180592 0.236194
vt 0.180592 0.236194
vt 0.315381 0.222918
vt 0.315381 0.222918
vt 0.179232 0.250000
vt 0.179232 0.250000
vt 0.308841 0.210683
vt 0.308841 0.210683
vt 0.180592 0.263806
vt 0.300040 0.199959
vt 0.300040 0.199959
vt 0.184619 0.277082
vt 0.289316 0.191159
vt 0.289316 0.191159
vt 0.191159 0.289317
vt 0.191159 0.289317
vt 0.277082 0.184619
vt 0.277082 0.184619
vt 0.263806 0.319408
vt 0.263806 0.319408
vt 0.199959 0.300040
vt 0.199959 0.300040
vt 0.263806 0.180592
vt 0.263806 0.180592
vt 0.277082 0.315381
vt 0.277082 0.315381
vt 0.210683 0.308841
vt 0.250000 0.179232
vt 0.289317 0.308841
vt 0.277082 0.315381
vt 0.263806 0.319408
vt 0.277082 0.315381
vt 0.300040 0.199959
vt 0.289316 0.191159
vt 0.191159 0.289317
vt 0.277082 0.184619
vt 0.250000 0.320768
vt 0.263806 0.319408
vt 0.199959 0.300040
vt 0.263806 0.180592
vt 0.210683 0.308841
vt 0.250000 0.179232
vt 0.289317 0.308841
vt 0.222918 0.315381
vt 0.236194 0.180592
vt 0.300041 0.300041
vt 0.236194 0.319408
vt 0.222918 0.184619
vt 0.308841 0.289317
vt 0.210683 0.191159
vt 0.315381 0.277082
vt 0.199959 0.199959
vt 0.319408 0.263806
vt 0.191159 0.210683
vt 0.320768 0.250000
vt 0.184619 0.222918
vt 0.319408 0.236194
vt 0.180592 0.236194
vt 0.315381 0.222918
vt 0.179232 0.250000
vt 0.308841 0.210683
vt 0.180592 0.263806
vt 0.319408 0.263806
vt 0.320768 0.250000
vt 0.320768 0.250000
vt 0.199959 0.300040
vt 0.210683 0.308841
vt 0.263806 0.180592
vt 0.250000 0.179232
vt 0.289317 0.308841
vt 0.222918 0.315381
vt 0.236194 0.180592
vt 0.300041 0.300041
vt 0.236194 0.319408
vt 0.222918 0.184619
vt 0.308841 0.289317
vt 0.250000 0.320768
vt 0.210683 0.191159
vt 0.315381 0.277082
vt 0.199959 0.199959
vt 0.191159 0.210683
vt 0.184619 0.222918
vt 0.319408 0.236194
vt 0.180592 0.236194
vt 0.315381 0.222918
vt 0.179232 0.250000
vt 0.308841 0.210683
vt 0.180592 0.263806
vt 0.300040 0.199959
vt 0.184619 0.277082
vt 0.289316 0.191159
vt 0.191159 0.289317
vt 0.277082 0.184619
vt 0.184619 0.277082
vt 0.222918 0.184619
vt 0.315381 0.222918
vt 0.191159 0.210683
vt 0.184619 0.222918
vt 0.319408 0.236194
vt 0.180592 0.236194
vt 0.179232 0.250000
vt 0.308841 0.210683
vt 0.180592 0.263806
vt 0.300040 0.199959
vt 0.289316 0.191159
vt 0.191159 0.289317
vt 0.277082 0.184619
vt 0.263806 0.319408
vt 0.199959 0.300040
vt 0.263806 0.180592
vt 0.277082 0.315381
vt 0.210683 0.308841
vt 0.250000 0.179232
vt 0.289317 0.308841
vt 0.222918 0.315381
vt 0.236194 0.180592
vt 0.300041 0.300041
vt 0.236194 0.319408
vt 0.308841 0.289317
vt 0.250000 0.320768
vt 0.210683 0.191159
vt 0.315381 0.277082
vt 0.199959 0.199959
vt 0.319408 0.263806
vn -0.4633 0.5781 -0.6717
vn -0.2762 0.7012 -0.6573
vn -0.3200 0.5781 -0.7506
vn -0.7072 0.6926 -0.1420
vn -0.4855 0.8515 -0.1979
vn -0.6661 0.6956 -0.2692
vn -0.1634 0.5781 0.7994
vn 0.0000 0.7014 0.7127
vn -0.1409 0.7012 0.6989
vn 0.5873 0.5781 -0.5665
vn 0.4005 0.7010 -0.5901
vn 0.5094 0.7001 -0.5004
vn -0.1634 0.5781 -0.7994
vn -0.1409 0.7014 -0.6987
vn -0.2762 0.7013 0.6572
vn -0.3200 0.5781 0.7506
vn 0.5988 0.6985 -0.3919
vn 0.6872 0.5781 -0.4399
vn -0.0000 0.5781 -0.8159
vn 0.0000 0.7012 -0.7129
vn -0.4006 0.7009 0.5901
vn -0.4633 0.5781 0.6717
vn 0.6660 0.6957 -0.2691
vn 0.7594 0.5781 -0.2985
vn -0.5873 0.5781 0.5665
vn -0.5093 0.7001 0.5004
vn 0.7087 0.6921 -0.1369
vn 0.8021 0.5781 -0.1498
vn -0.5987 0.6985 0.3919
vn -0.6873 0.5781 0.4399
vn 0.8159 0.5781 0.0000
vn 0.7238 0.6900 0.0000
vn -0.6660 0.6957 0.2691
vn -0.7594 0.5781 0.2985
vn 0.7087 0.6921 0.1368
vn 0.8021 0.5781 0.1498
vn -0.7087 0.6921 0.1368
vn -0.8021 0.5781 0.1498
vn 0.7594 0.5781 0.2985
vn 0.6660 0.6957 0.2691
vn -0.8159 0.5781 0.0000
vn -0.7238 0.6900 -0.0000
vn 0.6873 0.5781 0.4399
vn 0.5987 0.6985 0.3919
vn -0.8021 0.5781 -0.1498
vn 0.5873 0.5781 0.5665
vn 0.5094 0.7001 0.5004
vn -0.7594 0.5781 -0.2985
vn 0.4633 0.5781 0.6717
vn 0.4005 0.7009 0.5901
vn -0.5987 0.6986 -0.3918
vn -0.6873 0.5781 -0.4399
vn 0.3200 0.5781 0.7506
vn 0.2762 0.7012 0.6573
vn 0.1409 0.7014 -0.6987
vn 0.1634 0.5781 -0.7994
vn -0.5873 0.5781 -0.5665
vn -0.5094 0.7001 -0.5004
vn 0.1409 0.7014 0.6987
vn 0.1634 0.5781 0.7994
vn 0.2762 0.7012 -0.6573
vn 0.3200 0.5781 -0.7506
vn -0.3848 0.6878 -0.6155
vn -0.0000 0.5781 0.8159
vn 0.4633 0.5781 -0.6717
vn 0.2181 0.8496 -0.4802
vn 0.0562 0.9579 -0.2816
vn 0.1105 0.9576 -0.2662
vn 0.3691 0.8551 0.3642
vn 0.2899 0.8558 0.4284
vn -0.4349 0.8537 -0.2864
vn 0.1999 0.8562 0.4765
vn -0.0000 0.8563 -0.5164
vn 0.1058 0.8363 -0.5379
vn -0.3692 0.8550 -0.3642
vn 0.1020 0.8562 0.5064
vn -0.2899 0.8558 -0.4284
vn 0.0000 0.8563 0.5165
vn 0.2900 0.8558 -0.4284
vn -0.1999 0.8562 -0.4765
vn -0.1020 0.8563 0.5063
vn 0.3692 0.8550 -0.3642
vn -0.1020 0.8562 -0.5064
vn -0.1999 0.8562 0.4765
vn 0.4349 0.8537 -0.2864
vn -0.2900 0.8558 0.4283
vn 0.4856 0.8515 -0.1980
vn -0.3691 0.8550 0.3642
vn 0.5187 0.8489 -0.1014
vn -0.4350 0.8537 0.2865
vn 0.5305 0.8477 -0.0000
vn -0.4855 0.8515 0.1979
vn 0.5187 0.8489 0.1014
vn -0.5187 0.8489 0.1014
vn 0.4855 0.8515 0.1980
vn -0.5305 0.8477 -0.0000
vn 0.4349 0.8537 0.2864
vn -0.5202 0.8471 -0.1085
vn 0.3074 0.9496 -0.0612
vn 0.1016 0.9948 -0.0000
vn 0.3166 0.9485 0.0000
vn -0.2081 0.9556 -0.2086
vn -0.1616 0.9568 -0.2419
vn 0.0562 0.9579 0.2816
vn -0.0000 0.9580 0.2867
vn 0.1615 0.9568 -0.2418
vn -0.1105 0.9576 -0.2662
vn -0.0563 0.9578 0.2817
vn 0.2080 0.9556 -0.2085
vn -0.0563 0.9578 -0.2817
vn -0.1106 0.9575 0.2664
vn 0.2490 0.9540 -0.1672
vn 0.0000 0.9580 -0.2867
vn -0.1615 0.9568 0.2417
vn 0.2830 0.9518 -0.1181
vn -0.2081 0.9556 0.2086
vn -0.2489 0.9540 0.1672
vn -0.2830 0.9518 0.1181
vn 0.3072 0.9496 0.0617
vn -0.3073 0.9496 0.0617
vn 0.2830 0.9518 0.1181
vn -0.3166 0.9485 0.0000
vn 0.2489 0.9540 0.1672
vn -0.3073 0.9496 -0.0617
vn 0.2080 0.9556 0.2085
vn -0.2830 0.9518 -0.1181
vn 0.1616 0.9568 0.2418
vn -0.2489 0.9540 -0.1671
vn 0.1106 0.9575 0.2663
vn -0.0901 0.9951 -0.0397
vn -0.0376 0.9961 0.0800
vn 0.0918 0.9950 0.0386
vn -0.0852 0.9950 0.0523
vn -0.0920 0.9950 0.0382
vn 0.0929 0.9954 0.0213
vn -0.0970 0.9952 0.0161
vn -0.0966 0.9953 -0.0046
vn 0.0805 0.9955 0.0491
vn -0.0929 0.9954 -0.0214
vn 0.0712 0.9955 0.0622
vn 0.0595 0.9955 0.0742
vn -0.0805 0.9955 -0.0492
vn 0.0454 0.9954 0.0847
vn 0.0096 0.9950 -0.0994
vn -0.0712 0.9956 -0.0617
vn 0.0289 0.9953 0.0929
vn 0.0300 0.9949 -0.0961
vn -0.0595 0.9954 -0.0750
vn 0.0102 0.9951 0.0980
vn 0.0497 0.9948 -0.0889
vn -0.0453 0.9954 -0.0847
vn -0.0096 0.9950 0.0994
vn 0.0673 0.9949 -0.0750
vn -0.0289 0.9953 -0.0929
vn 0.0818 0.9949 -0.0586
vn -0.0102 0.9951 -0.0980
vn -0.0497 0.9949 0.0880
vn 0.0920 0.9950 -0.0382
vn -0.0673 0.9949 0.0754
vn 0.0929 0.9954 -0.0214
usemtl Doorin.013
s 1
f 1/1/1 2/2/2 3/3/3
f 4/4/4 5/5/5 6/6/6
f 7/7/7 8/8/8 9/9/9
f 10/10/10 11/11/11 12/12/12
f 13/13/13 2/2/2 14/14/14
f 7/7/7 15/15/15 16/16/16
f 10/10/10 17/17/17 18/18/18
f 19/19/19 14/14/14 20/20/20
f 16/16/16 21/21/21 22/22/22
f 18/18/18 23/23/23 24/24/24
f 25/25/25 21/21/21 26/26/26
f 24/24/24 27/27/27 28/28/28
f 25/25/25 29/29/29 30/30/30
f 31/31/31 27/27/27 32/32/32
f 30/30/30 33/33/33 34/34/34
f 31/31/31 35/35/35 36/36/36
f 34/34/34 37/37/37 38/38/38
f 39/39/39 35/35/35 40/40/40
f 41/41/41 37/37/37 42/42/42
f 43/43/43 40/40/40 44/44/44
f 41/41/41 4/4/4 45/45/45
f 46/46/46 44/44/44 47/47/47
f 48/48/48 4/4/4 6/6/6
f 49/49/49 47/47/47 50/50/50
f 48/48/48 51/51/51 52/52/52
f 53/53/53 50/50/50 54/54/54
f 19/19/19 55/55/55 56/56/56
f 57/57/57 51/51/51 58/58/58
f 53/53/53 59/59/59 60/60/60
f 56/56/56 61/61/61 62/62/62
f 1/1/1 58/58/58 63/63/63
f 64/64/64 59/59/59 8/8/8
f 62/62/62 11/11/11 65/65/65
f 66/66/66 67/67/67 68/68/68
f 50/50/50 69/69/69 70/70/70
f 51/51/51 5/5/5 71/71/71
f 54/54/54 70/70/70 72/72/72
f 55/55/55 73/73/73 74/74/74
f 58/58/58 71/71/71 75/75/75
f 59/59/59 72/72/72 76/76/76
f 55/55/55 66/66/66 61/61/61
f 63/63/63 75/75/75 77/77/77
f 8/8/8 76/76/76 78/78/78
f 11/11/11 66/66/66 79/79/79
f 63/63/63 80/80/80 2/2/2
f 8/8/8 81/81/81 9/9/9
f 12/12/12 79/79/79 82/82/82
f 14/14/14 80/80/80 83/83/83
f 15/15/15 81/81/81 84/84/84
f 12/12/12 85/85/85 17/17/17
f 14/14/14 73/73/73 20/20/20
f 15/15/15 86/86/86 21/21/21
f 23/23/23 85/85/85 87/87/87
f 26/26/26 86/86/86 88/88/88
f 23/23/23 89/89/89 27/27/27
f 26/26/26 90/90/90 29/29/29
f 32/32/32 89/89/89 91/91/91
f 29/29/29 92/92/92 33/33/33
f 35/35/35 91/91/91 93/93/93
f 33/33/33 94/94/94 37/37/37
f 40/40/40 93/93/93 95/95/95
f 37/37/37 96/96/96 42/42/42
f 44/44/44 95/95/95 97/97/97
f 42/42/42 98/98/98 4/4/4
f 47/47/47 97/97/97 69/69/69
f 99/99/99 100/100/100 101/101/101
f 77/77/77 102/102/102 103/103/103
f 78/78/78 104/104/104 105/105/105
f 79/79/79 68/68/68 106/106/106
f 77/77/77 107/107/107 80/80/80
f 81/81/81 105/105/105 108/108/108
f 82/82/82 106/106/106 109/109/109
f 80/80/80 110/110/110 83/83/83
f 84/84/84 108/108/108 111/111/111
f 85/85/85 109/109/109 112/112/112
f 83/83/83 113/113/113 73/73/73
f 84/84/84 114/114/114 86/86/86
f 87/87/87 112/112/112 115/115/115
f 86/86/86 116/116/116 88/88/88
f 89/89/89 115/115/115 99/99/99
f 88/88/88 117/117/117 90/90/90
f 91/91/91 99/99/99 101/101/101
f 92/92/92 117/117/117 118/118/118
f 93/93/93 101/101/101 119/119/119
f 92/92/92 120/120/120 94/94/94
f 95/95/95 119/119/119 121/121/121
f 94/94/94 122/122/122 96/96/96
f 97/97/97 121/121/121 123/123/123
f 96/96/96 124/124/124 98/98/98
f 69/69/69 123/123/123 125/125/125
f 98/98/98 126/126/126 5/5/5
f 70/70/70 125/125/125 127/127/127
f 5/5/5 128/128/128 71/71/71
f 70/70/70 129/129/129 72/72/72
f 73/73/73 67/67/67 74/74/74
f 71/71/71 102/102/102 75/75/75
f 72/72/72 104/104/104 76/76/76
f 130/130/130 131/131/131 132/132/132
f 118/118/118 133/133/133 134/134/134
f 119/119/119 100/100/100 135/135/135
f 120/120/120 134/134/134 136/136/136
f 119/119/119 132/132/132 121/121/121
f 120/120/120 137/137/137 122/122/122
f 121/121/121 138/138/138 123/123/123
f 124/124/124 137/137/137 139/139/139
f 123/123/123 140/140/140 125/125/125
f 126/126/126 139/139/139 130/130/130
f 125/125/125 141/141/141 127/127/127
f 128/128/128 130/130/130 142/142/142
f 127/127/127 143/143/143 129/129/129
f 113/113/113 144/144/144 67/67/67
f 128/128/128 145/145/145 102/102/102
f 129/129/129 146/146/146 104/104/104
f 68/68/68 144/144/144 147/147/147
f 103/103/103 145/145/145 148/148/148
f 105/105/105 146/146/146 149/149/149
f 68/68/68 150/150/150 106/106/106
f 107/107/107 148/148/148 151/151/151
f 105/105/105 152/152/152 108/108/108
f 106/106/106 153/153/153 109/109/109
f 107/107/107 154/154/154 110/110/110
f 111/111/111 152/152/152 131/131/131
f 109/109/109 155/155/155 112/112/112
f 113/113/113 154/154/154 156/156/156
f 114/114/114 131/131/131 157/157/157
f 115/115/115 155/155/155 158/158/158
f 114/114/114 159/159/159 116/116/116
f 115/115/115 160/160/160 99/99/99
f 117/117/117 159/159/159 133/133/133
f 1/1/1 63/63/63 2/2/2
f 4/4/4 98/98/98 5/5/5
f 7/7/7 64/64/64 8/8/8
f 10/10/10 65/65/65 11/11/11
f 13/13/13 3/3/3 2/2/2
f 7/7/7 9/9/9 15/15/15
f 10/10/10 12/12/12 17/17/17
f 19/19/19 13/13/13 14/14/14
f 16/16/16 15/15/15 21/21/21
f 18/18/18 17/17/17 23/23/23
f 25/25/25 22/22/22 21/21/21
f 24/24/24 23/23/23 27/27/27
f 25/25/25 26/26/26 29/29/29
f 31/31/31 28/28/28 27/27/27
f 30/30/30 29/29/29 33/33/33
f 31/31/31 32/32/32 35/35/35
f 34/34/34 33/33/33 37/37/37
f 39/39/39 36/36/36 35/35/35
f 41/41/41 38/38/38 37/37/37
f 43/43/43 39/39/39 40/40/40
f 41/41/41 42/42/42 4/4/4
f 46/46/46 43/43/43 44/44/44
f 48/48/48 45/45/45 4/4/4
f 49/49/49 46/46/46 47/47/47
f 48/48/48 6/6/6 51/51/51
f 53/53/53 49/49/49 50/50/50
f 19/19/19 20/20/20 55/55/55
f 57/57/57 52/52/52 51/51/51
f 53/53/53 54/54/54 59/59/59
f 56/56/56 55/55/55 61/61/61
f 1/1/1 57/57/57 58/58/58
f 64/64/64 60/60/60 59/59/59
f 62/62/62 61/61/61 11/11/11
f 66/66/66 74/74/74 67/67/67
f 50/50/50 47/47/47 69/69/69
f 51/51/51 6/6/6 5/5/5
f 54/54/54 50/50/50 70/70/70
f 55/55/55 20/20/20 73/73/73
f 58/58/58 51/51/51 71/71/71
f 59/59/59 54/54/54 72/72/72
f 55/55/55 74/74/74 66/66/66
f 63/63/63 58/58/58 75/75/75
f 8/8/8 59/59/59 76/76/76
f 11/11/11 61/61/61 66/66/66
f 63/63/63 77/77/77 80/80/80
f 8/8/8 78/78/78 81/81/81
f 12/12/12 11/11/11 79/79/79
f 14/14/14 2/2/2 80/80/80
f 15/15/15 9/9/9 81/81/81
f 12/12/12 82/82/82 85/85/85
f 14/14/14 83/83/83 73/73/73
f 15/15/15 84/84/84 86/86/86
f 23/23/23 17/17/17 85/85/85
f 26/26/26 21/21/21 86/86/86
f 23/23/23 87/87/87 89/89/89
f 26/26/26 88/88/88 90/90/90
f 32/32/32 27/27/27 89/89/89
f 29/29/29 90/90/90 92/92/92
f 35/35/35 32/32/32 91/91/91
f 33/33/33 92/92/92 94/94/94
f 40/40/40 35/35/35 93/93/93
f 37/37/37 94/94/94 96/96/96
f 44/44/44 40/40/40 95/95/95
f 42/42/42 96/96/96 98/98/98
f 47/47/47 44/44/44 97/97/97
f 99/99/99 160/160/160 100/100/100
f 77/77/77 75/75/75 102/102/102
f 78/78/78 76/76/76 104/104/104
f 79/79/79 66/66/66 68/68/68
f 77/77/77 103/103/103 107/107/107
f 81/81/81 78/78/78 105/105/105
f 82/82/82 79/79/79 106/106/106
f 80/80/80 107/107/107 110/110/110
f 84/84/84 81/81/81 108/108/108
f 85/85/85 82/82/82 109/109/109
f 83/83/83 110/110/110 113/113/113
f 84/84/84 111/111/111 114/114/114
f 87/87/87 85/85/85 112/112/112
f 86/86/86 114/114/114 116/116/116
f 89/89/89 87/87/87 115/115/115
f 88/88/88 116/116/116 117/117/117
f 91/91/91 89/89/89 99/99/99
f 92/92/92 90/90/90 117/117/117
f 93/93/93 91/91/91 101/101/101
f 92/92/92 118/118/118 120/120/120
f 95/95/95 93/93/93 119/119/119
f 94/94/94 120/120/120 122/122/122
f 97/97/97 95/95/95 121/121/121
f 96/96/96 122/122/122 124/124/124
f 69/69/69 97/97/97 123/123/123
f 98/98/98 124/124/124 126/126/126
f 70/70/70 69/69/69 125/125/125
f 5/5/5 126/126/126 128/128/128
f 70/70/70 127/127/127 129/129/129
f 73/73/73 113/113/113 67/67/67
f 71/71/71 128/128/128 102/102/102
f 72/72/72 129/129/129 104/104/104
f 147/147/147 144/144/144 156/156/156
f 156/156/156 154/154/154 151/151/151
f 151/151/151 148/148/148 145/145/145
f 145/145/145 142/142/142 151/151/151
f 142/142/142 130/130/130 151/151/151
f 130/130/130 139/139/139 137/137/137
f 137/137/137 136/136/136 130/130/130
f 136/136/136 134/134/134 130/130/130
f 134/134/134 133/133/133 159/159/159
f 159/159/159 157/157/157 134/134/134
f 157/157/157 131/131/131 134/134/134
f 131/131/131 152/152/152 149/149/149
f 149/149/149 146/146/146 143/143/143
f 143/143/143 141/141/141 132/132/132
f 141/141/141 140/140/140 132/132/132
f 140/140/140 138/138/138 132/132/132
f 132/132/132 135/135/135 158/158/158
f 135/135/135 100/100/100 158/158/158
f 100/100/100 160/160/160 158/158/158
f 158/158/158 155/155/155 147/147/147
f 155/155/155 153/153/153 147/147/147
f 153/153/153 150/150/150 147/147/147
f 147/147/147 156/156/156 151/151/151
f 131/131/131 149/149/149 132/132/132
f 149/149/149 143/143/143 132/132/132
f 147/147/147 151/151/151 130/130/130
f 130/130/130 134/134/134 131/131/131
f 132/132/132 158/158/158 147/147/147
f 147/147/147 130/130/130 132/132/132
f 118/118/118 117/117/117 133/133/133
f 119/119/119 101/101/101 100/100/100
f 120/120/120 118/118/118 134/134/134
f 119/119/119 135/135/135 132/132/132
f 120/120/120 136/136/136 137/137/137
f 121/121/121 132/132/132 138/138/138
f 124/124/124 122/122/122 137/137/137
f 123/123/123 138/138/138 140/140/140
f 126/126/126 124/124/124 139/139/139
f 125/125/125 140/140/140 141/141/141
f 128/128/128 126/126/126 130/130/130
f 127/127/127 141/141/141 143/143/143
f 113/113/113 156/156/156 144/144/144
f 128/128/128 142/142/142 145/145/145
f 129/129/129 143/143/143 146/146/146
f 68/68/68 67/67/67 144/144/144
f 103/103/103 102/102/102 145/145/145
f 105/105/105 104/104/104 146/146/146
f 68/68/68 147/147/147 150/150/150
f 107/107/107 103/103/103 148/148/148
f 105/105/105 149/149/149 152/152/152
f 106/106/106 150/150/150 153/153/153
f 107/107/107 151/151/151 154/154/154
f 111/111/111 108/108/108 152/152/152
f 109/109/109 153/153/153 155/155/155
f 113/113/113 110/110/110 154/154/154
f 114/114/114 111/111/111 131/131/131
f 115/115/115 112/112/112 155/155/155
f 114/114/114 157/157/157 159/159/159
f 115/115/115 158/158/158 160/160/160
f 117/117/117 116/116/116 159/159/159
