# Blender v3.5.1 OBJ File: ''
# www.blender.org
mtllib pintu4.mtl
o Cube.036_Cube.131_Cube.036_Cube.001
v -5.000539 5.498310 -7.700850
v -4.900413 5.423213 -7.700850
v -4.987125 5.460762 -7.700850
v -4.950476 5.433275 -7.700850
v -4.900413 8.032887 -7.700850
v -5.000539 7.957795 -7.700850
v -4.950476 8.022822 -7.700850
v -4.987125 7.995337 -7.700850
v -1.520972 7.957795 -7.700850
v -1.621099 8.032887 -7.700850
v -1.534386 7.995337 -7.700850
v -1.571036 8.022822 -7.700850
v -1.621099 5.423213 -7.700850
v -1.520972 5.498310 -7.700850
v -1.571036 5.433275 -7.700850
v -1.534386 5.460762 -7.700850
vt 0.595887 0.965369
vt 0.590369 0.970887
vt 0.404113 0.965369
vt 0.404113 0.784631
vt 0.595887 0.784631
vt 0.404359 0.781872
vt 0.409631 0.779113
vt 0.406872 0.779359
vt 0.590369 0.779113
vt 0.593128 0.779359
vt 0.595641 0.781872
vt 0.595641 0.968128
vt 0.593128 0.970641
vt 0.409631 0.970888
vt 0.406872 0.970641
vt 0.404359 0.968128
vn -0.0000 0.0000 1.0000
vn -0.0001 0.0000 1.0000
vn 0.0001 0.0000 1.0000
usemtl Material.040
s 1
f 5/1/1 6/2/1 2/3/1
f 2/3/1 13/4/1 10/5/1
f 13/4/1 15/6/1 14/7/1
f 15/6/1 16/8/2 14/7/1
f 14/7/1 9/9/1 10/5/1
f 9/9/1 11/10/1 12/11/1
f 10/5/1 9/9/1 12/11/1
f 10/5/1 5/1/1 2/3/1
f 5/1/1 7/12/1 6/2/1
f 7/12/1 8/13/1 6/2/1
f 6/2/1 1/14/1 2/3/1
f 1/14/1 3/15/3 4/16/1
f 2/3/1 1/14/1 4/16/1
f 13/4/1 14/7/1 10/5/1
o Cylinder.015_Cylinder.017_Cylinder.015_Cylinder.001
v 3.956809 6.830503 -7.490709
v 3.900001 6.832448 -7.490709
v 4.013352 6.824694 -7.490709
v 4.069367 6.815032 -7.490709
v 4.124592 6.801578 -7.490709
v 4.178771 6.784379 -7.490709
v 4.231648 6.763525 -7.490709
v 4.282980 6.739118 -7.490709
v 4.332527 6.711257 -7.490709
v 4.380057 6.680085 -7.490709
v 4.425348 6.645739 -7.490709
v 4.468190 6.608383 -7.490709
v 4.508383 6.568190 -7.490709
v 4.545740 6.525348 -7.490709
v 4.580085 6.480052 -7.490709
v 4.611260 6.432527 -7.490709
v 4.639119 6.382977 -7.490709
v 4.663531 6.331645 -7.490709
v 4.684383 6.278769 -7.490709
v 4.701579 6.224592 -7.490709
v 4.715037 6.169363 -7.490709
v 4.724695 6.113348 -7.490709
v 4.730508 6.056808 -7.490709
v 4.732448 6.000000 -7.490709
v 4.730507 5.943192 -7.490709
v 4.724695 5.886648 -7.490709
v 4.715037 5.830634 -7.490709
v 4.701579 5.775403 -7.490709
v 4.684383 5.721231 -7.490709
v 4.663531 5.668352 -7.490709
v 4.639119 5.617020 -7.490709
v 4.611260 5.567472 -7.490709
v 4.580085 5.519944 -7.490709
v 4.545740 5.474648 -7.490709
v 4.508383 5.431808 -7.490709
v 4.468190 5.391613 -7.490709
v 4.425348 5.354259 -7.490709
v 4.380057 5.319911 -7.490709
v 4.332527 5.288741 -7.490709
v 4.282981 5.260880 -7.490709
v 4.231648 5.236470 -7.490709
v 4.178771 5.215617 -7.490709
v 4.124592 5.198421 -7.490709
v 4.069367 5.184964 -7.490709
v 4.013352 5.175303 -7.490709
v 3.956809 5.169493 -7.490709
v 3.900001 5.167552 -7.490709
v 3.843192 5.169493 -7.490709
v 3.786649 5.175303 -7.490709
v 3.730634 5.184964 -7.490709
v 3.675409 5.198421 -7.490709
v 3.621231 5.215617 -7.490709
v 3.568353 5.236470 -7.490709
v 3.517020 5.260880 -7.490709
v 3.467474 5.288741 -7.490709
v 3.419945 5.319911 -7.490709
v 3.374653 5.354259 -7.490709
v 3.331811 5.391613 -7.490709
v 3.291618 5.431808 -7.490709
v 3.254261 5.474648 -7.490709
v 3.219916 5.519944 -7.490709
v 3.188741 5.567472 -7.490709
v 3.160882 5.617020 -7.490709
v 3.136470 5.668352 -7.490709
v 3.115618 5.721231 -7.490709
v 3.098423 5.775403 -7.490709
v 3.084964 5.830634 -7.490709
v 3.075306 5.886649 -7.490709
v 3.069494 5.943192 -7.490709
v 3.067553 6.000000 -7.490709
v 3.069494 6.056808 -7.490709
v 3.075306 6.113348 -7.490709
v 3.084964 6.169363 -7.490709
v 3.098423 6.224592 -7.490709
v 3.115618 6.278769 -7.490709
v 3.136470 6.331645 -7.490709
v 3.160882 6.382977 -7.490709
v 3.188741 6.432526 -7.490709
v 3.219916 6.480052 -7.490709
v 3.254261 6.525348 -7.490709
v 3.291618 6.568190 -7.490709
v 3.331811 6.608383 -7.490709
v 3.374653 6.645739 -7.490709
v 3.419944 6.680085 -7.490709
v 3.467474 6.711257 -7.490709
v 3.517020 6.739118 -7.490709
v 3.568352 6.763525 -7.490709
v 3.621231 6.784379 -7.490709
v 3.675409 6.801578 -7.490709
v 3.730634 6.815032 -7.490709
v 3.786649 6.824694 -7.490709
v 3.843193 6.830503 -7.490709
vt 0.344369 0.094816
vt 0.431201 0.262394
vt 0.322360 0.416588
vt 0.274731 0.429933
vt 0.262394 0.431201
vt 0.250000 0.431625
vt 0.237605 0.431201
vt 0.225269 0.429933
vt 0.213047 0.427826
vt 0.177640 0.416588
vt 0.200998 0.424890
vt 0.189177 0.421138
vt 0.166441 0.411262
vt 0.155630 0.405184
vt 0.145260 0.398382
vt 0.135379 0.390888
vt 0.126031 0.382738
vt 0.117262 0.373968
vt 0.109111 0.364621
vt 0.101618 0.354739
vt 0.094816 0.344369
vt 0.078862 0.310822
vt 0.088738 0.333559
vt 0.083412 0.322359
vt 0.075110 0.299002
vt 0.068798 0.262394
vt 0.072174 0.286953
vt 0.070067 0.274731
vt 0.068375 0.250000
vt 0.068798 0.237605
vt 0.070067 0.225269
vt 0.072174 0.213047
vt 0.075110 0.200998
vt 0.078862 0.189177
vt 0.083412 0.177640
vt 0.088738 0.166441
vt 0.094816 0.155631
vt 0.101618 0.145260
vt 0.109111 0.135379
vt 0.117262 0.126031
vt 0.126031 0.117262
vt 0.135379 0.109111
vt 0.145260 0.101618
vt 0.155631 0.094816
vt 0.166441 0.088738
vt 0.177640 0.083412
vt 0.189177 0.078862
vt 0.200998 0.075110
vt 0.213047 0.072174
vt 0.225269 0.070067
vt 0.237605 0.068798
vt 0.250000 0.068375
vt 0.262394 0.068798
vt 0.299002 0.075110
vt 0.274731 0.070067
vt 0.286953 0.072174
vt 0.310822 0.078862
vt 0.322360 0.083412
vt 0.333559 0.088738
vt 0.354739 0.101618
vt 0.364621 0.109111
vt 0.373969 0.117262
vt 0.382738 0.126031
vt 0.390889 0.135379
vt 0.398382 0.145260
vt 0.405184 0.155631
vt 0.411262 0.166441
vt 0.416588 0.177640
vt 0.421138 0.189177
vt 0.424890 0.200998
vt 0.427826 0.213047
vt 0.429933 0.225269
vt 0.431201 0.237605
vt 0.431625 0.250000
vt 0.429933 0.274731
vt 0.427826 0.286953
vt 0.424890 0.299002
vt 0.421138 0.310823
vt 0.416588 0.322360
vt 0.398382 0.354739
vt 0.411262 0.333559
vt 0.405184 0.344369
vt 0.390888 0.364621
vt 0.382738 0.373969
vt 0.373969 0.382738
vt 0.364621 0.390889
vt 0.354740 0.398382
vt 0.344369 0.405184
vt 0.333559 0.411262
vt 0.310823 0.421138
vt 0.299002 0.424890
vt 0.286953 0.427826
vn -0.0000 0.0000 1.0000
vn -0.0001 0.0000 1.0000
vn -0.0003 0.0000 1.0000
vn -0.0033 -0.0000 1.0000
vn 0.0013 0.0000 1.0000
vn 0.0002 0.0000 1.0000
vn -0.0002 0.0000 1.0000
vn 0.0001 0.0000 1.0000
vn 0.0003 0.0000 1.0000
vn 0.0007 0.0000 1.0000
vn -0.0015 -0.0000 1.0000
vn 0.0018 -0.0000 1.0000
vn -0.0007 0.0000 1.0000
vn 0.0033 -0.0000 1.0000
vn -0.0010 -0.0000 1.0000
vn -0.0018 0.0000 1.0000
vn 0.0012 -0.0000 1.0000
vn 0.0005 0.0000 1.0000
usemtl Material.040
s 1
f 55/17/4 39/18/4 23/19/4
f 19/20/4 17/21/4 18/22/4
f 18/22/4 108/23/4 19/20/4
f 108/23/4 107/24/4 19/20/4
f 107/24/4 106/25/4 103/26/4
f 106/25/4 105/27/4 103/26/4
f 105/27/4 104/28/5 103/26/4
f 103/26/4 102/29/4 101/30/4
f 101/30/4 100/31/6 99/32/4
f 99/32/4 98/33/7 97/34/4
f 97/34/4 96/35/8 95/36/4
f 95/36/4 94/37/4 91/38/4
f 94/37/4 93/39/9 91/38/4
f 93/39/9 92/40/4 91/38/4
f 91/38/4 90/41/10 87/42/4
f 90/41/10 89/43/4 87/42/4
f 89/43/4 88/44/4 87/42/4
f 87/42/4 86/45/4 85/46/11
f 85/46/11 84/47/6 83/48/4
f 83/48/4 82/49/4 81/50/4
f 81/50/4 80/51/7 79/52/4
f 79/52/4 78/53/12 77/54/4
f 77/54/4 76/55/13 75/56/4
f 75/56/4 74/57/14 73/58/4
f 73/58/4 72/59/4 71/60/4
f 71/60/4 70/61/4 69/62/4
f 69/62/4 68/63/4 67/64/4
f 67/64/4 66/65/5 65/66/4
f 65/66/4 64/67/4 67/64/4
f 64/67/4 63/68/4 67/64/4
f 63/68/4 62/69/4 59/70/4
f 62/69/4 61/71/4 59/70/4
f 61/71/4 60/72/11 59/70/4
f 59/70/4 58/73/4 57/74/4
f 57/74/4 56/75/4 55/17/4
f 55/17/4 54/76/4 53/77/4
f 53/77/4 52/78/15 51/79/4
f 51/79/4 50/80/16 49/81/4
f 49/81/4 48/82/6 47/83/4
f 47/83/4 46/84/17 45/85/4
f 45/85/4 44/86/4 43/87/4
f 43/87/4 42/88/12 41/89/5
f 41/89/5 40/90/4 39/18/4
f 39/18/4 38/91/4 37/92/11
f 37/92/11 36/93/4 35/94/4
f 35/94/4 34/95/4 31/96/4
f 34/95/4 33/97/4 31/96/4
f 33/97/4 32/98/18 31/96/4
f 31/96/4 30/99/19 29/100/4
f 29/100/4 28/101/17 27/102/4
f 27/102/4 26/103/20 25/104/4
f 25/104/4 24/105/4 23/19/4
f 23/19/4 22/106/21 21/107/4
f 21/107/4 20/108/4 23/19/4
f 20/108/4 19/20/4 23/19/4
f 103/26/4 101/30/4 95/36/4
f 101/30/4 99/32/4 95/36/4
f 99/32/4 97/34/4 95/36/4
f 87/42/4 85/46/11 83/48/4
f 83/48/4 81/50/4 87/42/4
f 81/50/4 79/52/4 87/42/4
f 79/52/4 77/54/4 71/60/4
f 77/54/4 75/56/4 71/60/4
f 75/56/4 73/58/4 71/60/4
f 71/60/4 69/62/4 63/68/4
f 69/62/4 67/64/4 63/68/4
f 59/70/4 57/74/4 55/17/4
f 55/17/4 53/77/4 51/79/4
f 51/79/4 49/81/4 55/17/4
f 49/81/4 47/83/4 55/17/4
f 47/83/4 45/85/4 39/18/4
f 45/85/4 43/87/4 39/18/4
f 43/87/4 41/89/5 39/18/4
f 39/18/4 37/92/11 35/94/4
f 31/96/4 29/100/4 27/102/4
f 27/102/4 25/104/4 23/19/4
f 19/20/4 107/24/4 23/19/4
f 107/24/4 103/26/4 23/19/4
f 95/36/4 91/38/4 103/26/4
f 91/38/4 87/42/4 103/26/4
f 63/68/4 59/70/4 71/60/4
f 59/70/4 55/17/4 71/60/4
f 39/18/4 35/94/4 23/19/4
f 35/94/4 31/96/4 23/19/4
f 31/96/4 27/102/4 23/19/4
f 87/42/4 79/52/4 71/60/4
f 55/17/4 47/83/4 39/18/4
f 23/19/4 103/26/4 87/42/4
f 87/42/4 71/60/4 23/19/4
f 71/60/4 55/17/4 23/19/4
o Cylinder.016_Cylinder.018_Cylinder.016_Cylinder.001
v 14.956808 6.830503 -7.490709
v 14.900000 6.832448 -7.490709
v 15.013351 6.824694 -7.490709
v 15.069366 6.815032 -7.490709
v 15.124591 6.801578 -7.490709
v 15.178769 6.784379 -7.490709
v 15.231647 6.763525 -7.490709
v 15.282980 6.739118 -7.490709
v 15.332526 6.711257 -7.490709
v 15.380055 6.680085 -7.490709
v 15.425347 6.645739 -7.490709
v 15.468189 6.608383 -7.490709
v 15.508382 6.568190 -7.490709
v 15.545738 6.525348 -7.490709
v 15.580084 6.480052 -7.490709
v 15.611259 6.432527 -7.490709
v 15.639117 6.382977 -7.490709
v 15.663530 6.331645 -7.490709
v 15.684382 6.278769 -7.490709
v 15.701578 6.224592 -7.490709
v 15.715035 6.169363 -7.490709
v 15.724693 6.113348 -7.490709
v 15.730507 6.056808 -7.490709
v 15.732448 6.000000 -7.490709
v 15.730507 5.943192 -7.490709
v 15.724693 5.886648 -7.490709
v 15.715035 5.830634 -7.490709
v 15.701578 5.775403 -7.490709
v 15.684382 5.721231 -7.490709
v 15.663530 5.668352 -7.490709
v 15.639117 5.617020 -7.490709
v 15.611259 5.567472 -7.490709
v 15.580084 5.519944 -7.490709
v 15.545738 5.474648 -7.490709
v 15.508382 5.431808 -7.490709
v 15.468189 5.391613 -7.490709
v 15.425347 5.354259 -7.490709
v 15.380055 5.319911 -7.490709
v 15.332526 5.288741 -7.490709
v 15.282980 5.260880 -7.490709
v 15.231647 5.236470 -7.490709
v 15.178769 5.215617 -7.490709
v 15.124592 5.198421 -7.490709
v 15.069366 5.184964 -7.490709
v 15.013351 5.175303 -7.490709
v 14.956808 5.169493 -7.490709
v 14.900000 5.167552 -7.490709
v 14.843191 5.169493 -7.490709
v 14.786648 5.175303 -7.490709
v 14.730633 5.184964 -7.490709
v 14.675408 5.198421 -7.490709
v 14.621230 5.215617 -7.490709
v 14.568352 5.236470 -7.490709
v 14.517019 5.260880 -7.490709
v 14.467473 5.288741 -7.490709
v 14.419944 5.319911 -7.490709
v 14.374652 5.354259 -7.490709
v 14.331810 5.391613 -7.490709
v 14.291617 5.431808 -7.490709
v 14.254261 5.474648 -7.490709
v 14.219915 5.519944 -7.490709
v 14.188740 5.567472 -7.490709
v 14.160882 5.617020 -7.490709
v 14.136469 5.668352 -7.490709
v 14.115617 5.721231 -7.490709
v 14.098421 5.775403 -7.490709
v 14.084964 5.830634 -7.490709
v 14.075306 5.886649 -7.490709
v 14.069492 5.943192 -7.490709
v 14.067552 6.000000 -7.490709
v 14.069492 6.056808 -7.490709
v 14.075306 6.113348 -7.490709
v 14.084964 6.169363 -7.490709
v 14.098421 6.224592 -7.490709
v 14.115617 6.278769 -7.490709
v 14.136469 6.331645 -7.490709
v 14.160882 6.382977 -7.490709
v 14.188740 6.432526 -7.490709
v 14.219915 6.480052 -7.490709
v 14.254261 6.525348 -7.490709
v 14.291616 6.568190 -7.490709
v 14.331810 6.608383 -7.490709
v 14.374652 6.645739 -7.490709
v 14.419944 6.680085 -7.490709
v 14.467473 6.711257 -7.490709
v 14.517019 6.739118 -7.490709
v 14.568352 6.763525 -7.490709
v 14.621229 6.784379 -7.490709
v 14.675408 6.801578 -7.490709
v 14.730634 6.815032 -7.490709
v 14.786648 6.824694 -7.490709
v 14.843191 6.830503 -7.490709
vt 0.155631 0.094816
vt 0.344369 0.094816
vt 0.322360 0.416588
vt 0.274731 0.429933
vt 0.262394 0.431201
vt 0.225269 0.429933
vt 0.250000 0.431625
vt 0.237605 0.431201
vt 0.213047 0.427826
vt 0.177640 0.416588
vt 0.200998 0.424890
vt 0.189177 0.421138
vt 0.166441 0.411262
vt 0.155630 0.405184
vt 0.145260 0.398382
vt 0.135379 0.390888
vt 0.126031 0.382738
vt 0.101618 0.354739
vt 0.117262 0.373968
vt 0.109111 0.364621
vt 0.094816 0.344369
vt 0.088738 0.333559
vt 0.083412 0.322359
vt 0.078862 0.310822
vt 0.075110 0.299002
vt 0.072174 0.286953
vt 0.070067 0.274731
vt 0.068798 0.262394
vt 0.068375 0.250000
vt 0.068798 0.237605
vt 0.070067 0.225269
vt 0.072174 0.213047
vt 0.075110 0.200998
vt 0.078862 0.189177
vt 0.083412 0.177640
vt 0.088738 0.166441
vt 0.094816 0.155631
vt 0.101618 0.145260
vt 0.109111 0.135379
vt 0.117262 0.126031
vt 0.126031 0.117262
vt 0.135379 0.109111
vt 0.145260 0.101618
vt 0.166441 0.088738
vt 0.177640 0.083412
vt 0.189177 0.078862
vt 0.200998 0.075110
vt 0.213047 0.072174
vt 0.225269 0.070067
vt 0.237605 0.068798
vt 0.250000 0.068375
vt 0.262394 0.068798
vt 0.299002 0.075110
vt 0.274731 0.070067
vt 0.286953 0.072174
vt 0.310822 0.078862
vt 0.322360 0.083412
vt 0.333559 0.088738
vt 0.354739 0.101618
vt 0.364621 0.109111
vt 0.373969 0.117262
vt 0.382738 0.126031
vt 0.390889 0.135379
vt 0.398382 0.145260
vt 0.405184 0.155631
vt 0.411262 0.166441
vt 0.416588 0.177640
vt 0.421138 0.189177
vt 0.424890 0.200998
vt 0.427826 0.213047
vt 0.429933 0.225269
vt 0.431201 0.262394
vt 0.431201 0.237605
vt 0.431625 0.250000
vt 0.429933 0.274731
vt 0.427826 0.286953
vt 0.424890 0.299002
vt 0.421138 0.310823
vt 0.416588 0.322360
vt 0.411262 0.333559
vt 0.405184 0.344369
vt 0.398382 0.354739
vt 0.390888 0.364621
vt 0.382738 0.373969
vt 0.373969 0.382738
vt 0.364621 0.390889
vt 0.354740 0.398382
vt 0.344369 0.405184
vt 0.333559 0.411262
vt 0.310823 0.421138
vt 0.299002 0.424890
vt 0.286953 0.427826
vn 0.0000 0.0000 1.0000
vn -0.0001 0.0000 1.0000
vn -0.0003 0.0000 1.0000
vn 0.0018 0.0000 1.0000
vn 0.0014 0.0000 1.0000
vn 0.0002 0.0000 1.0000
vn 0.0003 0.0000 1.0000
vn 0.0001 0.0000 1.0000
vn -0.0030 0.0000 1.0000
vn 0.0016 -0.0000 1.0000
vn -0.0018 -0.0000 1.0000
vn -0.0019 -0.0000 1.0000
vn 0.0030 -0.0000 1.0000
vn -0.0014 -0.0000 1.0000
vn -0.0011 0.0000 1.0000
vn 0.0033 -0.0000 1.0000
usemtl Material.040
s 1
f 163/109/22 147/110/22 115/111/22
f 111/112/22 109/113/22 199/114/22
f 109/113/22 110/115/22 199/114/22
f 110/115/22 200/116/22 199/114/22
f 199/114/22 198/117/22 195/118/22
f 198/117/22 197/119/22 195/118/22
f 197/119/22 196/120/23 195/118/22
f 195/118/22 194/121/22 193/122/22
f 193/122/22 192/123/24 191/124/22
f 191/124/22 190/125/23 187/126/22
f 190/125/23 189/127/22 187/126/22
f 189/127/22 188/128/25 187/126/22
f 187/126/22 186/129/26 185/130/22
f 185/130/22 184/131/22 183/132/22
f 183/132/22 182/133/22 181/134/22
f 181/134/22 180/135/24 179/136/22
f 179/136/22 178/137/22 177/138/22
f 177/138/22 176/139/27 179/136/22
f 176/139/27 175/140/22 179/136/22
f 175/140/22 174/141/28 173/142/29
f 173/142/29 172/143/30 171/144/22
f 171/144/22 170/145/31 169/146/22
f 169/146/22 168/147/28 167/148/22
f 167/148/22 166/149/32 165/150/22
f 165/150/22 164/151/22 163/109/22
f 163/109/22 162/152/22 161/153/22
f 161/153/22 160/154/22 159/155/22
f 159/155/22 158/156/23 157/157/22
f 157/157/22 156/158/22 159/155/22
f 156/158/22 155/159/22 159/155/22
f 155/159/22 154/160/22 151/161/22
f 154/160/22 153/162/22 151/161/22
f 153/162/22 152/163/29 151/161/22
f 151/161/22 150/164/22 149/165/22
f 149/165/22 148/166/22 147/110/22
f 147/110/22 146/167/22 145/168/22
f 145/168/22 144/169/25 143/170/22
f 143/170/22 142/171/24 141/172/22
f 141/172/22 140/173/33 139/174/22
f 139/174/22 138/175/34 137/176/23
f 137/176/23 136/177/24 135/178/22
f 135/178/22 134/179/22 131/180/22
f 134/179/22 133/181/22 131/180/22
f 133/181/22 132/182/22 131/180/22
f 131/180/22 130/183/28 129/184/22
f 129/184/22 128/185/22 127/186/22
f 127/186/22 126/187/22 125/188/22
f 125/188/22 124/189/35 123/190/22
f 123/190/22 122/191/36 121/192/22
f 121/192/22 120/193/37 119/194/22
f 119/194/22 118/195/29 117/196/22
f 117/196/22 116/197/22 115/111/22
f 115/111/22 114/198/29 113/199/22
f 113/199/22 112/200/22 115/111/22
f 112/200/22 111/112/22 115/111/22
f 195/118/22 193/122/22 187/126/22
f 193/122/22 191/124/22 187/126/22
f 187/126/22 185/130/22 183/132/22
f 183/132/22 181/134/22 187/126/22
f 181/134/22 179/136/22 187/126/22
f 175/140/22 173/142/29 171/144/22
f 171/144/22 169/146/22 163/109/22
f 169/146/22 167/148/22 163/109/22
f 167/148/22 165/150/22 163/109/22
f 163/109/22 161/153/22 159/155/22
f 151/161/22 149/165/22 155/159/22
f 149/165/22 147/110/22 155/159/22
f 147/110/22 145/168/22 143/170/22
f 143/170/22 141/172/22 147/110/22
f 141/172/22 139/174/22 147/110/22
f 139/174/22 137/176/23 135/178/22
f 131/180/22 129/184/22 123/190/22
f 129/184/22 127/186/22 123/190/22
f 127/186/22 125/188/22 123/190/22
f 123/190/22 121/192/22 119/194/22
f 119/194/22 117/196/22 123/190/22
f 117/196/22 115/111/22 123/190/22
f 111/112/22 199/114/22 115/111/22
f 199/114/22 195/118/22 115/111/22
f 179/136/22 175/140/22 163/109/22
f 175/140/22 171/144/22 163/109/22
f 163/109/22 159/155/22 147/110/22
f 159/155/22 155/159/22 147/110/22
f 139/174/22 135/178/22 131/180/22
f 195/118/22 187/126/22 115/111/22
f 187/126/22 179/136/22 115/111/22
f 147/110/22 139/174/22 115/111/22
f 139/174/22 131/180/22 115/111/22
f 131/180/22 123/190/22 115/111/22
f 179/136/22 163/109/22 115/111/22
