# Blender v3.5.1 OBJ File: ''
# www.blender.org
mtllib env2-lantai.mtl
o Cube.007_Cube.002
v -35.115524 -16.451469 13.445984
v -20.115522 -16.766098 13.445984
v -20.115522 -16.451466 13.445984
v -35.115524 -16.766104 13.445984
v -20.115524 -16.766109 -53.808197
v -35.115524 -16.766113 -53.808197
v -20.115524 -16.451475 -53.808197
v -35.115524 -16.451479 -53.808197
vt 0.625000 0.000000
vt 0.375000 0.250000
vt 0.375000 0.000000
vt 0.625000 0.250000
vt 0.375000 0.500000
vt 0.625000 0.500000
vt 0.375000 0.750000
vt 0.625000 0.750000
vt 0.375000 1.000000
vt 0.125000 0.750000
vt 0.125000 0.500000
vt 0.875000 0.500000
vt 0.625000 1.000000
vt 0.875000 0.750000
vn -0.0000 0.0000 1.0000
vn 0.0000 -1.0000 0.0000
vn -0.0000 0.0000 -1.0000
vn -0.0000 1.0000 -0.0000
vn 1.0000 0.0000 -0.0000
vn -1.0000 0.0000 0.0000
usemtl Wall.221
s 1
f 1/1/1 2/2/1 3/3/1
f 4/4/2 5/5/2 2/2/2
f 6/6/3 7/7/3 5/5/3
f 8/8/4 3/9/4 7/7/4
f 5/5/5 3/10/5 2/11/5
f 4/12/6 8/8/6 6/6/6
f 6/6/3 8/8/3 7/7/3
f 1/1/1 4/4/1 2/2/1
f 4/4/2 6/6/2 5/5/2
f 8/8/4 1/13/4 3/9/4
f 5/5/5 7/7/5 3/10/5
f 4/12/6 1/14/6 8/8/6
o Cube.010_Cube.001
v -35.360161 -16.451479 -54.571785
v -35.360161 -16.766106 -36.771790
v -35.360161 -16.451471 -36.771790
v -35.360161 -16.766113 -54.571785
v 67.538727 -16.766106 -36.771790
v 67.538727 -16.766113 -54.571785
v 67.538727 -16.451471 -36.771790
v 67.538727 -16.451479 -54.571785
vt 0.625000 0.000000
vt 0.375000 0.250000
vt 0.375000 0.000000
vt 0.625000 0.250000
vt 0.375000 0.500000
vt 0.625000 0.500000
vt 0.375000 0.750000
vt 0.625000 0.750000
vt 0.375000 1.000000
vt 0.125000 0.750000
vt 0.125000 0.500000
vt 0.875000 0.500000
vt 0.625000 1.000000
vt 0.875000 0.750000
vn -1.0000 0.0000 0.0000
vn 0.0000 -1.0000 0.0000
vn 1.0000 0.0000 0.0000
vn 0.0000 1.0000 -0.0000
vn 0.0000 0.0000 1.0000
vn 0.0000 0.0000 -1.0000
usemtl Wall.224
s 1
f 9/15/7 10/16/7 11/17/7
f 12/18/8 13/19/8 10/16/8
f 14/20/9 15/21/9 13/19/9
f 16/22/10 11/23/10 15/21/10
f 13/19/11 11/24/11 10/25/11
f 12/26/12 16/22/12 14/20/12
f 14/20/9 16/22/9 15/21/9
f 9/15/7 12/18/7 10/16/7
f 12/18/8 14/20/8 13/19/8
f 16/22/10 9/27/10 11/23/10
f 13/19/11 15/21/11 11/24/11
f 12/26/12 9/28/12 16/22/12
o Cube.013_Cube.001
v 12.039277 -16.451464 53.400703
v 27.039278 -16.766092 53.400703
v 27.039278 -16.451458 53.400703
v 12.039277 -16.766098 53.400703
v 27.039276 -16.766102 -0.402641
v 12.039275 -16.766106 -0.402641
v 27.039276 -16.451468 -0.402641
v 12.039275 -16.451471 -0.402641
vt 0.625000 0.000000
vt 0.375000 0.250000
vt 0.375000 0.000000
vt 0.625000 0.250000
vt 0.375000 0.500000
vt 0.625000 0.500000
vt 0.375000 0.750000
vt 0.625000 0.750000
vt 0.375000 1.000000
vt 0.125000 0.750000
vt 0.125000 0.500000
vt 0.875000 0.500000
vt 0.625000 1.000000
vt 0.875000 0.750000
vn 0.0000 0.0000 1.0000
vn 0.0000 -1.0000 0.0000
vn 0.0000 0.0000 -1.0000
vn -0.0000 1.0000 -0.0000
vn 1.0000 0.0000 -0.0000
vn -1.0000 0.0000 0.0000
usemtl Wall.227
s 1
f 17/29/13 18/30/13 19/31/13
f 20/32/14 21/33/14 18/30/14
f 22/34/15 23/35/15 21/33/15
f 24/36/16 19/37/16 23/35/16
f 21/33/17 19/38/17 18/39/17
f 20/40/18 24/36/18 22/34/18
f 22/34/15 24/36/15 23/35/15
f 17/29/13 20/32/13 18/30/13
f 20/32/14 22/34/14 21/33/14
f 24/36/16 17/41/16 19/37/16
f 21/33/17 23/35/17 19/38/17
f 20/40/18 17/42/18 24/36/18
o Cube.015_Cube.001
v -35.034473 -16.451471 -0.498528
v -35.034473 -16.766092 53.401478
v -35.034473 -16.451458 53.401478
v -35.034473 -16.766106 -0.498528
v 12.043452 -16.766092 53.401478
v 12.043452 -16.766106 -0.498528
v 12.043452 -16.451458 53.401478
v 12.043452 -16.451471 -0.498528
vt 0.625000 0.000000
vt 0.375000 0.250000
vt 0.375000 0.000000
vt 0.625000 0.250000
vt 0.375000 0.500000
vt 0.625000 0.500000
vt 0.375000 0.750000
vt 0.625000 0.750000
vt 0.375000 1.000000
vt 0.125000 0.750000
vt 0.125000 0.500000
vt 0.875000 0.500000
vt 0.625000 1.000000
vt 0.875000 0.750000
vn -1.0000 0.0000 0.0000
vn 0.0000 -1.0000 0.0000
vn 1.0000 0.0000 0.0000
vn 0.0000 1.0000 -0.0000
vn 0.0000 0.0000 1.0000
vn 0.0000 0.0000 -1.0000
usemtl Wall.229
s 1
f 25/43/19 26/44/19 27/45/19
f 28/46/20 29/47/20 26/44/20
f 30/48/21 31/49/21 29/47/21
f 32/50/22 27/51/22 31/49/22
f 29/47/23 27/52/23 26/53/23
f 28/54/24 32/50/24 30/48/24
f 30/48/21 32/50/21 31/49/21
f 25/43/19 28/46/19 26/44/19
f 28/46/20 30/48/20 29/47/20
f 32/50/22 25/55/22 27/51/22
f 29/47/23 31/49/23 27/52/23
f 28/54/24 25/56/24 32/50/24
