# Blender v3.5.1 OBJ File: ''
# www.blender.org
mtllib envi2-pintu-3-1.mtl
o Cube.034_Cube.001_Cube.034_Cube.001
v 17.162380 -16.622505 53.210384
v 17.162380 -12.302502 53.669384
v 17.162380 -12.302502 53.210384
v 22.074863 -16.622505 53.210392
v 22.074863 -12.302502 53.669392
v 22.074863 -16.622509 53.669392
v 17.162380 -16.622505 53.669384
v 22.074863 -12.302502 53.210392
v 22.074863 -11.314844 53.669392
v 17.239468 -10.841639 53.669384
v 17.162380 -11.314844 53.669384
v 17.162380 -11.314844 53.210384
v 22.074863 -11.314844 53.210392
v 17.239468 -10.841639 53.210384
v 21.802998 -10.194376 53.210392
v 21.997776 -10.841640 53.210392
v 21.997776 -10.841640 53.669392
v 21.614208 -9.735382 53.669392
v 21.802998 -10.194376 53.669392
v 17.434246 -10.194375 53.669384
v 17.434246 -10.194375 53.210384
v 17.623035 -9.735381 53.669384
v 21.346203 -9.314526 53.669392
v 17.891033 -9.314526 53.669384
v 17.623035 -9.735381 53.210384
v 21.614208 -9.735382 53.210392
v 17.891033 -9.314526 53.210384
v 20.953846 -8.885725 53.210392
v 21.346203 -9.314526 53.210392
v 20.953846 -8.885725 53.669392
v 18.809658 -8.562002 53.669384
v 18.283390 -8.885724 53.669384
v 18.283390 -8.885724 53.210384
v 19.944302 -8.420754 53.669392
v 19.292934 -8.420754 53.669384
v 18.809658 -8.562002 53.210384
v 20.427586 -8.562003 53.210392
v 20.427586 -8.562003 53.669392
v 19.944302 -8.420754 53.210392
v 19.292934 -8.420754 53.210384
vt 0.375000 0.500000
vt 0.625000 0.750000
vt 0.625000 0.500000
vt 0.375000 0.500000
vt 0.625000 0.750000
vt 0.375000 0.750000
vt 0.375000 0.750000
vt 0.625000 0.500000
vt 0.625000 0.750000
vt 0.625000 0.750000
vt 0.625000 0.750000
vt 0.625000 0.500000
vt 0.625000 0.500000
vt 0.625000 0.500000
vt 0.625000 0.500000
vt 0.625000 0.500000
vt 0.625000 0.750000
vt 0.625000 0.750000
vt 0.625000 0.750000
vt 0.625000 0.750000
vt 0.625000 0.500000
vt 0.625000 0.750000
vt 0.625000 0.750000
vt 0.625000 0.750000
vt 0.625000 0.500000
vt 0.625000 0.500000
vt 0.625000 0.500000
vt 0.625000 0.500000
vt 0.625000 0.500000
vt 0.625000 0.750000
vt 0.625000 0.750000
vt 0.625000 0.750000
vt 0.625000 0.500000
vt 0.625000 0.750000
vt 0.625000 0.750000
vt 0.625000 0.500000
vt 0.625000 0.500000
vt 0.625000 0.750000
vt 0.625000 0.500000
vt 0.625000 0.500000
vn -1.0000 0.0000 0.0000
vn 1.0000 0.0000 0.0000
vn -0.0000 -1.0000 -0.0000
vn -0.0000 0.0000 1.0000
vn 0.0000 0.0000 -1.0000
vn -0.9870 0.1608 0.0000
vn 0.9870 0.1608 0.0000
vn 0.9248 0.3804 0.0000
vn 0.9576 0.2882 0.0000
vn -0.9576 0.2882 0.0000
vn -0.9248 0.3804 0.0000
vn -0.8435 0.5371 0.0000
vn 0.8435 0.5371 0.0000
vn 0.7378 0.6751 0.0000
vn -0.7378 0.6751 0.0000
vn -0.5239 0.8518 0.0000
vn 0.5239 0.8518 0.0000
vn 0.5240 0.8517 0.0000
vn 0.0000 1.0000 0.0000
vn -0.2805 0.9598 0.0000
vn 0.2805 0.9598 0.0000
usemtl Doorin.023
s 1
f 1/1/1 2/2/1 3/3/1
f 4/4/2 5/5/2 6/6/2
f 7/7/3 4/4/3 6/6/3
f 7/7/4 5/5/4 2/2/4
f 3/3/5 4/4/5 1/1/5
f 8/8/2 9/9/2 5/5/2
f 9/9/4 10/10/4 11/11/4
f 2/2/1 12/12/1 3/3/1
f 5/5/4 11/11/4 2/2/4
f 3/3/5 13/13/5 8/8/5
f 14/14/5 15/15/5 16/16/5
f 11/11/6 14/14/6 12/12/6
f 13/13/5 14/14/5 16/16/5
f 13/13/7 17/17/7 9/9/7
f 15/15/8 18/18/8 19/19/8
f 17/17/9 15/15/9 19/19/9
f 10/10/4 19/19/4 20/20/4
f 10/10/10 21/21/10 14/14/10
f 22/22/4 23/23/4 24/24/4
f 19/19/4 22/22/4 20/20/4
f 20/20/11 25/25/11 21/21/11
f 15/15/5 25/25/5 26/26/5
f 27/27/5 28/28/5 29/29/5
f 22/22/12 27/27/12 25/25/12
f 25/25/5 29/29/5 26/26/5
f 26/26/13 23/23/13 18/18/13
f 30/30/4 31/31/4 32/32/4
f 29/29/14 30/30/14 23/23/14
f 23/23/4 32/32/4 24/24/4
f 24/24/15 33/33/15 27/27/15
f 31/31/4 34/34/4 35/35/4
f 32/32/16 36/36/16 33/33/16
f 33/33/5 37/37/5 28/28/5
f 28/28/17 38/38/17 30/30/18
f 35/35/19 39/39/19 40/40/19
f 31/31/20 40/40/20 36/36/20
f 36/36/5 39/39/5 37/37/5
f 37/37/21 34/34/21 38/38/21
f 1/1/1 7/7/1 2/2/1
f 4/4/2 8/8/2 5/5/2
f 7/7/3 1/1/3 4/4/3
f 7/7/4 6/6/4 5/5/4
f 3/3/5 8/8/5 4/4/5
f 8/8/2 13/13/2 9/9/2
f 9/9/4 17/17/4 10/10/4
f 2/2/1 11/11/1 12/12/1
f 5/5/4 9/9/4 11/11/4
f 3/3/5 12/12/5 13/13/5
f 14/14/5 21/21/5 15/15/5
f 11/11/6 10/10/6 14/14/6
f 13/13/5 12/12/5 14/14/5
f 13/13/7 16/16/7 17/17/7
f 15/15/8 26/26/8 18/18/8
f 17/17/9 16/16/9 15/15/9
f 10/10/4 17/17/4 19/19/4
f 10/10/10 20/20/10 21/21/10
f 22/22/4 18/18/4 23/23/4
f 19/19/4 18/18/4 22/22/4
f 20/20/11 22/22/11 25/25/11
f 15/15/5 21/21/5 25/25/5
f 27/27/5 33/33/5 28/28/5
f 22/22/12 24/24/12 27/27/12
f 25/25/5 27/27/5 29/29/5
f 26/26/13 29/29/13 23/23/13
f 30/30/4 38/38/4 31/31/4
f 29/29/14 28/28/14 30/30/14
f 23/23/4 30/30/4 32/32/4
f 24/24/15 32/32/15 33/33/15
f 31/31/4 38/38/4 34/34/4
f 32/32/16 31/31/16 36/36/16
f 33/33/5 36/36/5 37/37/5
f 28/28/17 37/37/17 38/38/17
f 35/35/19 34/34/19 39/39/19
f 31/31/20 35/35/20 40/40/20
f 36/36/5 40/40/5 39/39/5
f 37/37/21 39/39/21 34/34/21
